<svg xmlns="http://www.w3.org/2000/svg" xmlns:xlink="http://www.w3.org/1999/xlink" viewBox="0 0 293.98 307.14"><defs><style>.cls-1{isolation:isolate;}.cls-104,.cls-106,.cls-11,.cls-128,.cls-132,.cls-135,.cls-137,.cls-139,.cls-141,.cls-143,.cls-146,.cls-147,.cls-16,.cls-167,.cls-170,.cls-172,.cls-18,.cls-181,.cls-199,.cls-2,.cls-4,.cls-54,.cls-57,.cls-6,.cls-63{mix-blend-mode:multiply;}.cls-2{fill:url(#linear-gradient);}.cls-3{fill:url(#linear-gradient-2);}.cls-4{fill:url(#linear-gradient-3);}.cls-5{fill:url(#linear-gradient-4);}.cls-6{fill:url(#linear-gradient-5);}.cls-7{fill:url(#linear-gradient-6);}.cls-8{fill:url(#linear-gradient-7);}.cls-9{fill:#e9f9fa;}.cls-10{fill:url(#linear-gradient-8);}.cls-11{fill:url(#linear-gradient-9);}.cls-12{fill:url(#linear-gradient-10);}.cls-13{fill:url(#linear-gradient-11);}.cls-14{fill:url(#linear-gradient-12);}.cls-15{fill:url(#linear-gradient-13);}.cls-17{fill:url(#linear-gradient-14);}.cls-18{fill:url(#linear-gradient-15);}.cls-19{fill:url(#linear-gradient-16);}.cls-20{fill:url(#linear-gradient-17);}.cls-21{fill:url(#linear-gradient-18);}.cls-22{fill:url(#linear-gradient-19);}.cls-23{fill:url(#linear-gradient-20);}.cls-24{fill:url(#linear-gradient-21);}.cls-25{fill:url(#linear-gradient-22);}.cls-26{fill:url(#linear-gradient-23);}.cls-27{fill:url(#linear-gradient-24);}.cls-28{fill:url(#linear-gradient-25);}.cls-29{fill:url(#linear-gradient-26);}.cls-30{fill:url(#linear-gradient-27);}.cls-31{fill:url(#linear-gradient-28);}.cls-32{fill:url(#linear-gradient-29);}.cls-33{fill:url(#linear-gradient-30);}.cls-34{fill:url(#linear-gradient-31);}.cls-35{fill:url(#linear-gradient-32);}.cls-36{fill:url(#linear-gradient-33);}.cls-37{fill:url(#linear-gradient-34);}.cls-38{fill:url(#linear-gradient-35);}.cls-39{fill:url(#linear-gradient-36);}.cls-40{fill:url(#linear-gradient-37);}.cls-41{fill:url(#linear-gradient-38);}.cls-42{fill:url(#linear-gradient-39);}.cls-43{fill:url(#linear-gradient-40);}.cls-44{fill:url(#linear-gradient-41);}.cls-45{fill:url(#linear-gradient-42);}.cls-46{fill:url(#linear-gradient-43);}.cls-47{fill:url(#linear-gradient-44);}.cls-48{fill:url(#linear-gradient-45);}.cls-49{fill:url(#linear-gradient-46);}.cls-50{fill:url(#linear-gradient-47);}.cls-51{fill:url(#linear-gradient-48);}.cls-52{fill:url(#linear-gradient-49);}.cls-53{fill:url(#linear-gradient-50);}.cls-54{fill:url(#linear-gradient-51);}.cls-55{fill:url(#linear-gradient-52);}.cls-56{fill:url(#linear-gradient-53);}.cls-57{fill:url(#linear-gradient-54);}.cls-58{fill:url(#linear-gradient-55);}.cls-59{fill:url(#linear-gradient-56);}.cls-60{fill:url(#linear-gradient-57);}.cls-61{fill:url(#linear-gradient-58);}.cls-62{fill:url(#linear-gradient-59);}.cls-63{fill:url(#linear-gradient-60);}.cls-64{fill:url(#linear-gradient-61);}.cls-65{fill:url(#linear-gradient-62);}.cls-66{fill:url(#linear-gradient-63);}.cls-67{fill:url(#linear-gradient-64);}.cls-68{fill:url(#linear-gradient-65);}.cls-69{fill:url(#linear-gradient-66);}.cls-70{fill:url(#linear-gradient-67);}.cls-71{fill:url(#linear-gradient-68);}.cls-72{fill:url(#linear-gradient-69);}.cls-73{fill:url(#linear-gradient-70);}.cls-74{fill:url(#linear-gradient-71);}.cls-75{fill:url(#linear-gradient-72);}.cls-76{fill:url(#linear-gradient-73);}.cls-77{fill:url(#linear-gradient-74);}.cls-78{fill:url(#linear-gradient-75);}.cls-79{fill:url(#linear-gradient-76);}.cls-80{fill:url(#linear-gradient-77);}.cls-81{fill:url(#linear-gradient-78);}.cls-82{fill:url(#linear-gradient-79);}.cls-83{fill:url(#linear-gradient-80);}.cls-84{fill:url(#linear-gradient-81);}.cls-85{fill:url(#linear-gradient-82);}.cls-86{fill:url(#linear-gradient-83);}.cls-87{fill:url(#linear-gradient-84);}.cls-88{fill:url(#linear-gradient-85);}.cls-89{fill:url(#linear-gradient-86);}.cls-90{fill:url(#linear-gradient-87);}.cls-91{fill:url(#linear-gradient-88);}.cls-92{fill:url(#linear-gradient-89);}.cls-93{fill:url(#linear-gradient-90);}.cls-94{fill:url(#linear-gradient-91);}.cls-95{fill:url(#linear-gradient-92);}.cls-96{fill:url(#linear-gradient-93);}.cls-97{fill:url(#linear-gradient-94);}.cls-98{fill:url(#linear-gradient-95);}.cls-99{fill:url(#linear-gradient-96);}.cls-100{fill:url(#linear-gradient-97);}.cls-101{fill:url(#linear-gradient-98);}.cls-102{fill:url(#linear-gradient-99);}.cls-103{fill:url(#linear-gradient-100);}.cls-104{fill:url(#linear-gradient-101);}.cls-105{fill:url(#linear-gradient-102);}.cls-106{fill:url(#linear-gradient-103);}.cls-107{fill:url(#linear-gradient-104);}.cls-108{fill:url(#linear-gradient-105);}.cls-109{fill:url(#linear-gradient-106);}.cls-110{fill:#319ec5;}.cls-111{fill:url(#linear-gradient-107);}.cls-112{fill:url(#linear-gradient-108);}.cls-113{fill:url(#linear-gradient-109);}.cls-114{fill:url(#linear-gradient-110);}.cls-115{fill:url(#linear-gradient-111);}.cls-116{fill:url(#linear-gradient-112);}.cls-117{fill:url(#linear-gradient-113);}.cls-118{fill:url(#linear-gradient-114);}.cls-119{fill:url(#linear-gradient-115);}.cls-120{fill:url(#linear-gradient-116);}.cls-121{fill:url(#linear-gradient-117);}.cls-122{fill:url(#linear-gradient-118);}.cls-123{fill:url(#linear-gradient-119);}.cls-124{fill:url(#linear-gradient-120);}.cls-125{fill:url(#linear-gradient-121);}.cls-126{fill:#f5c199;}.cls-127{fill:#1a6d94;}.cls-128{fill:url(#linear-gradient-122);}.cls-129{fill:#111331;}.cls-130{fill:#302b5b;}.cls-131{fill:#24224a;}.cls-132{fill:#d7e9ee;}.cls-133{fill:#e6af89;}.cls-134{fill:url(#linear-gradient-123);}.cls-135{fill:url(#linear-gradient-124);}.cls-136{fill:url(#linear-gradient-125);}.cls-137{fill:url(#linear-gradient-126);}.cls-138{fill:url(#linear-gradient-127);}.cls-139{fill:url(#linear-gradient-128);}.cls-140{fill:url(#linear-gradient-129);}.cls-141{fill:url(#linear-gradient-130);}.cls-142{fill:url(#linear-gradient-131);}.cls-143{fill:url(#linear-gradient-132);}.cls-144{fill:url(#linear-gradient-133);}.cls-145{fill:#d7d8da;}.cls-146{fill:url(#linear-gradient-134);}.cls-147{fill:url(#linear-gradient-135);}.cls-148{fill:url(#linear-gradient-136);}.cls-149{fill:url(#linear-gradient-137);}.cls-150{fill:url(#linear-gradient-138);}.cls-151{fill:url(#linear-gradient-139);}.cls-152{fill:url(#linear-gradient-140);}.cls-153{fill:url(#linear-gradient-141);}.cls-154{fill:url(#linear-gradient-142);}.cls-155{fill:url(#linear-gradient-143);}.cls-156{fill:url(#linear-gradient-144);}.cls-157{fill:url(#linear-gradient-145);}.cls-158{fill:url(#linear-gradient-146);}.cls-159{fill:url(#linear-gradient-147);}.cls-160{fill:url(#linear-gradient-148);}.cls-161{fill:url(#linear-gradient-149);}.cls-162{fill:url(#linear-gradient-150);}.cls-163{fill:url(#linear-gradient-151);}.cls-164{fill:url(#linear-gradient-152);}.cls-165{fill:url(#linear-gradient-153);}.cls-166{fill:url(#linear-gradient-154);}.cls-167{fill:url(#linear-gradient-155);}.cls-168{fill:url(#linear-gradient-156);}.cls-169{fill:url(#linear-gradient-157);}.cls-170{fill:url(#linear-gradient-158);}.cls-171{fill:url(#linear-gradient-159);}.cls-172{fill:url(#linear-gradient-160);}.cls-173{fill:url(#linear-gradient-161);}.cls-174{fill:url(#linear-gradient-162);}.cls-175{fill:url(#linear-gradient-163);}.cls-176{fill:url(#linear-gradient-164);}.cls-177{fill:url(#linear-gradient-165);}.cls-178{fill:url(#linear-gradient-166);}.cls-179{fill:url(#linear-gradient-167);}.cls-180{fill:url(#linear-gradient-168);}.cls-181{fill:url(#linear-gradient-169);}.cls-182{fill:#ffe885;}.cls-183{fill:url(#linear-gradient-170);}.cls-184{fill:url(#linear-gradient-171);}.cls-185{fill:url(#linear-gradient-172);}.cls-186{fill:url(#linear-gradient-173);}.cls-187{fill:url(#linear-gradient-174);}.cls-188{fill:url(#linear-gradient-175);}.cls-189{fill:url(#linear-gradient-176);}.cls-190{fill:url(#linear-gradient-177);}.cls-191{fill:url(#linear-gradient-178);}.cls-192{fill:url(#linear-gradient-179);}.cls-193{fill:url(#linear-gradient-180);}.cls-194{fill:url(#linear-gradient-181);}.cls-195{fill:url(#linear-gradient-182);}.cls-196{fill:url(#linear-gradient-183);}.cls-197{fill:url(#linear-gradient-184);}.cls-198{fill:url(#linear-gradient-185);}.cls-199{fill:url(#linear-gradient-186);}.cls-200{fill:url(#linear-gradient-187);}</style><linearGradient id="linear-gradient" x1="163.42" y1="94.64" x2="201.2" y2="94.64" gradientUnits="userSpaceOnUse"><stop offset="0" stop-color="#d7d8da"/><stop offset="0.52" stop-color="#eeeeef"/><stop offset="1" stop-color="#fff"/></linearGradient><linearGradient id="linear-gradient-2" x1="230.31" y1="131.06" x2="238.83" y2="131.06" gradientUnits="userSpaceOnUse"><stop offset="0" stop-color="#3d4189"/><stop offset="1" stop-color="#302b5b"/></linearGradient><linearGradient id="linear-gradient-3" x1="230.31" y1="130.8" x2="238.83" y2="130.8" xlink:href="#linear-gradient"/><linearGradient id="linear-gradient-4" x1="217.55" y1="88.74" x2="251.6" y2="88.74" gradientUnits="userSpaceOnUse"><stop offset="0" stop-color="#2e8aa8"/><stop offset="1" stop-color="#196e94"/></linearGradient><linearGradient id="linear-gradient-5" x1="229.56" y1="86.36" x2="244.65" y2="134.18" xlink:href="#linear-gradient"/><linearGradient id="linear-gradient-6" x1="185.73" y1="209.26" x2="296.46" y2="209.26" gradientTransform="translate(137.05 -92.55) rotate(30.02)" gradientUnits="userSpaceOnUse"><stop offset="0" stop-color="#302b5b"/><stop offset="1" stop-color="#231f4d"/></linearGradient><linearGradient id="linear-gradient-7" x1="264.8" y1="181.77" x2="305.54" y2="181.77" gradientUnits="userSpaceOnUse"><stop offset="0" stop-color="#d6eaed"/><stop offset="0.71" stop-color="#abcfd9"/><stop offset="1" stop-color="#abcfd9"/></linearGradient><linearGradient id="linear-gradient-8" x1="264.82" y1="176.01" x2="305.52" y2="176.01" gradientUnits="userSpaceOnUse"><stop offset="0" stop-color="#abcfd9"/><stop offset="0.29" stop-color="#abcfd9"/><stop offset="1" stop-color="#d6eaed"/></linearGradient><linearGradient id="linear-gradient-9" x1="285.59" y1="175.36" x2="305.52" y2="175.36" gradientUnits="userSpaceOnUse"><stop offset="0" stop-color="#d7d8da"/><stop offset="0.08" stop-color="#dedfe0"/><stop offset="0.37" stop-color="#f0f1f1"/><stop offset="0.67" stop-color="#fbfbfc"/><stop offset="1" stop-color="#fff"/></linearGradient><linearGradient id="linear-gradient-10" x1="-1094.72" y1="156.51" x2="-1082.96" y2="156.51" gradientTransform="matrix(-1, 0, 0, 1, -803.25, 0)" xlink:href="#linear-gradient-7"/><linearGradient id="linear-gradient-11" x1="271.9" y1="109.04" x2="316.1" y2="109.04" gradientTransform="translate(-97.92 -47.8)" gradientUnits="userSpaceOnUse"><stop offset="0" stop-color="#8ab6bf"/><stop offset="1" stop-color="#a1c1cd"/></linearGradient><linearGradient id="linear-gradient-12" x1="271.9" y1="81.31" x2="316.1" y2="81.31" gradientTransform="translate(-97.92 -47.8)" gradientUnits="userSpaceOnUse"><stop offset="0" stop-color="#a1c1cd"/><stop offset="1" stop-color="#8ab6bf"/></linearGradient><linearGradient id="linear-gradient-13" x1="-1132.94" y1="109.06" x2="-1050.89" y2="109.06" gradientTransform="matrix(-1, 0, 0, 1, -874.41, -47.8)" xlink:href="#linear-gradient-8"/><linearGradient id="linear-gradient-14" x1="272.36" y1="109.03" x2="315.24" y2="109.03" gradientTransform="translate(-26.77)" gradientUnits="userSpaceOnUse"><stop offset="0" stop-color="#fff"/><stop offset="0.48" stop-color="#eeeeef"/><stop offset="1" stop-color="#d7d8da"/></linearGradient><linearGradient id="linear-gradient-15" x1="-1126.99" y1="94.34" x2="-1062.92" y2="113.22" gradientTransform="matrix(-1, 0, 0, 1, -803.25, 0)" xlink:href="#linear-gradient"/><linearGradient id="linear-gradient-16" x1="-1065.03" y1="95.33" x2="-1054.72" y2="95.33" gradientTransform="matrix(-1, 0, 0, 1, -803.25, 0)" xlink:href="#linear-gradient-2"/><linearGradient id="linear-gradient-17" x1="-1072.74" y1="90.87" x2="-1062.44" y2="90.87" gradientTransform="matrix(-1, 0, 0, 1, -803.25, 0)" xlink:href="#linear-gradient-2"/><linearGradient id="linear-gradient-18" x1="-1080.46" y1="86.41" x2="-1070.15" y2="86.41" gradientTransform="matrix(-1, 0, 0, 1, -803.25, 0)" xlink:href="#linear-gradient-2"/><linearGradient id="linear-gradient-19" x1="-1088.17" y1="81.95" x2="-1077.86" y2="81.95" gradientTransform="matrix(-1, 0, 0, 1, -803.25, 0)" xlink:href="#linear-gradient-2"/><linearGradient id="linear-gradient-20" x1="-1095.88" y1="77.48" x2="-1085.57" y2="77.48" gradientTransform="matrix(-1, 0, 0, 1, -803.25, 0)" xlink:href="#linear-gradient-2"/><linearGradient id="linear-gradient-21" x1="-1070.57" y1="102.88" x2="-1060.26" y2="102.88" gradientTransform="matrix(-1, 0, 0, 1, -803.25, 0)" xlink:href="#linear-gradient-2"/><linearGradient id="linear-gradient-22" x1="-1078.28" y1="98.41" x2="-1067.97" y2="98.41" gradientTransform="matrix(-1, 0, 0, 1, -803.25, 0)" xlink:href="#linear-gradient-2"/><linearGradient id="linear-gradient-23" x1="-1085.99" y1="93.95" x2="-1075.68" y2="93.95" gradientTransform="matrix(-1, 0, 0, 1, -803.25, 0)" xlink:href="#linear-gradient-2"/><linearGradient id="linear-gradient-24" x1="-1093.7" y1="89.49" x2="-1083.39" y2="89.49" gradientTransform="matrix(-1, 0, 0, 1, -803.25, 0)" xlink:href="#linear-gradient-2"/><linearGradient id="linear-gradient-25" x1="-1101.41" y1="85.03" x2="-1091.1" y2="85.03" gradientTransform="matrix(-1, 0, 0, 1, -803.25, 0)" xlink:href="#linear-gradient-2"/><linearGradient id="linear-gradient-26" x1="-1076.1" y1="110.42" x2="-1065.79" y2="110.42" gradientTransform="matrix(-1, 0, 0, 1, -803.25, 0)" xlink:href="#linear-gradient-2"/><linearGradient id="linear-gradient-27" x1="-1083.81" y1="105.96" x2="-1073.5" y2="105.96" gradientTransform="matrix(-1, 0, 0, 1, -803.25, 0)" xlink:href="#linear-gradient-2"/><linearGradient id="linear-gradient-28" x1="-1091.52" y1="101.5" x2="-1081.21" y2="101.5" gradientTransform="matrix(-1, 0, 0, 1, -803.25, 0)" xlink:href="#linear-gradient-2"/><linearGradient id="linear-gradient-29" x1="-1099.23" y1="97.04" x2="-1088.93" y2="97.04" gradientTransform="matrix(-1, 0, 0, 1, -803.25, 0)" xlink:href="#linear-gradient-2"/><linearGradient id="linear-gradient-30" x1="-1106.95" y1="92.58" x2="-1096.64" y2="92.58" gradientTransform="matrix(-1, 0, 0, 1, -803.25, 0)" xlink:href="#linear-gradient-2"/><linearGradient id="linear-gradient-31" x1="-1081.63" y1="117.97" x2="-1071.32" y2="117.97" gradientTransform="matrix(-1, 0, 0, 1, -803.25, 0)" xlink:href="#linear-gradient-2"/><linearGradient id="linear-gradient-32" x1="-1089.34" y1="113.51" x2="-1079.04" y2="113.51" gradientTransform="matrix(-1, 0, 0, 1, -803.25, 0)" xlink:href="#linear-gradient-2"/><linearGradient id="linear-gradient-33" x1="-1097.06" y1="109.04" x2="-1086.75" y2="109.04" gradientTransform="matrix(-1, 0, 0, 1, -803.25, 0)" xlink:href="#linear-gradient-2"/><linearGradient id="linear-gradient-34" x1="-1104.77" y1="104.58" x2="-1094.46" y2="104.58" gradientTransform="matrix(-1, 0, 0, 1, -803.25, 0)" xlink:href="#linear-gradient-2"/><linearGradient id="linear-gradient-35" x1="-1112.48" y1="100.12" x2="-1102.17" y2="100.12" gradientTransform="matrix(-1, 0, 0, 1, -803.25, 0)" xlink:href="#linear-gradient-2"/><linearGradient id="linear-gradient-36" x1="-1087.17" y1="125.51" x2="-1076.86" y2="125.51" gradientTransform="matrix(-1, 0, 0, 1, -803.25, 0)" xlink:href="#linear-gradient-2"/><linearGradient id="linear-gradient-37" x1="-1094.88" y1="121.05" x2="-1084.57" y2="121.05" gradientTransform="matrix(-1, 0, 0, 1, -803.25, 0)" xlink:href="#linear-gradient-2"/><linearGradient id="linear-gradient-38" x1="-1102.59" y1="116.59" x2="-1092.28" y2="116.59" gradientTransform="matrix(-1, 0, 0, 1, -803.25, 0)" xlink:href="#linear-gradient-2"/><linearGradient id="linear-gradient-39" x1="-1110.3" y1="112.13" x2="-1099.99" y2="112.13" gradientTransform="matrix(-1, 0, 0, 1, -803.25, 0)" xlink:href="#linear-gradient-2"/><linearGradient id="linear-gradient-40" x1="-1118.01" y1="107.67" x2="-1107.7" y2="107.67" gradientTransform="matrix(-1, 0, 0, 1, -803.25, 0)" xlink:href="#linear-gradient-2"/><linearGradient id="linear-gradient-41" x1="-1092.7" y1="133.06" x2="-1082.39" y2="133.06" gradientTransform="matrix(-1, 0, 0, 1, -803.25, 0)" xlink:href="#linear-gradient-2"/><linearGradient id="linear-gradient-42" x1="-1100.41" y1="128.6" x2="-1090.1" y2="128.6" gradientTransform="matrix(-1, 0, 0, 1, -803.25, 0)" xlink:href="#linear-gradient-2"/><linearGradient id="linear-gradient-43" x1="-1108.12" y1="124.14" x2="-1097.81" y2="124.14" gradientTransform="matrix(-1, 0, 0, 1, -803.25, 0)" xlink:href="#linear-gradient-2"/><linearGradient id="linear-gradient-44" x1="-1115.83" y1="119.67" x2="-1105.53" y2="119.67" gradientTransform="matrix(-1, 0, 0, 1, -803.25, 0)" xlink:href="#linear-gradient-2"/><linearGradient id="linear-gradient-45" x1="-1123.55" y1="115.21" x2="-1113.24" y2="115.21" gradientTransform="matrix(-1, 0, 0, 1, -803.25, 0)" xlink:href="#linear-gradient-2"/><linearGradient id="linear-gradient-46" x1="-1098.23" y1="140.6" x2="-1087.93" y2="140.6" gradientTransform="matrix(-1, 0, 0, 1, -803.25, 0)" xlink:href="#linear-gradient-2"/><linearGradient id="linear-gradient-47" x1="-1105.94" y1="136.14" x2="-1095.64" y2="136.14" gradientTransform="matrix(-1, 0, 0, 1, -803.25, 0)" xlink:href="#linear-gradient-2"/><linearGradient id="linear-gradient-48" x1="-1113.66" y1="131.68" x2="-1103.35" y2="131.68" gradientTransform="matrix(-1, 0, 0, 1, -803.25, 0)" xlink:href="#linear-gradient-2"/><linearGradient id="linear-gradient-49" x1="-1121.37" y1="127.22" x2="-1111.06" y2="127.22" gradientTransform="matrix(-1, 0, 0, 1, -803.25, 0)" xlink:href="#linear-gradient-2"/><linearGradient id="linear-gradient-50" x1="-1129.08" y1="122.76" x2="-1118.77" y2="122.76" gradientTransform="matrix(-1, 0, 0, 1, -803.25, 0)" xlink:href="#linear-gradient-2"/><linearGradient id="linear-gradient-51" x1="384.38" y1="208.65" x2="432.41" y2="208.65" gradientTransform="translate(-209.52 -47.8) scale(0.99 1)" xlink:href="#linear-gradient-9"/><linearGradient id="linear-gradient-52" x1="220.3" y1="206.45" x2="261.04" y2="206.45" xlink:href="#linear-gradient-7"/><linearGradient id="linear-gradient-53" x1="220.32" y1="200.69" x2="261.03" y2="200.69" xlink:href="#linear-gradient-8"/><linearGradient id="linear-gradient-54" x1="241.09" y1="200.05" x2="261.03" y2="200.05" xlink:href="#linear-gradient-9"/><linearGradient id="linear-gradient-55" x1="-1050.22" y1="181.19" x2="-1038.46" y2="181.19" gradientTransform="matrix(-1, 0, 0, 1, -803.25, 0)" xlink:href="#linear-gradient-7"/><linearGradient id="linear-gradient-56" x1="227.4" y1="133.72" x2="271.6" y2="133.72" xlink:href="#linear-gradient-11"/><linearGradient id="linear-gradient-57" x1="227.4" y1="106" x2="271.6" y2="106" xlink:href="#linear-gradient-12"/><linearGradient id="linear-gradient-58" x1="-1088.45" y1="133.75" x2="-1006.39" y2="133.75" gradientTransform="matrix(-1, 0, 0, 1, -874.41, -47.8)" xlink:href="#linear-gradient-8"/><linearGradient id="linear-gradient-59" x1="227.86" y1="133.72" x2="270.74" y2="133.72" xlink:href="#linear-gradient-14"/><linearGradient id="linear-gradient-60" x1="-1082.49" y1="119.03" x2="-1018.43" y2="137.91" gradientTransform="matrix(-1, 0, 0, 1, -803.25, 0)" xlink:href="#linear-gradient"/><linearGradient id="linear-gradient-61" x1="-1020.54" y1="120.02" x2="-1010.23" y2="120.02" gradientTransform="matrix(-1, 0, 0, 1, -803.25, 0)" xlink:href="#linear-gradient-2"/><linearGradient id="linear-gradient-62" x1="-1028.25" y1="115.56" x2="-1017.94" y2="115.56" gradientTransform="matrix(-1, 0, 0, 1, -803.25, 0)" xlink:href="#linear-gradient-2"/><linearGradient id="linear-gradient-63" x1="-1035.96" y1="111.09" x2="-1025.65" y2="111.09" gradientTransform="matrix(-1, 0, 0, 1, -803.25, 0)" xlink:href="#linear-gradient-2"/><linearGradient id="linear-gradient-64" x1="-1043.67" y1="106.63" x2="-1033.36" y2="106.63" gradientTransform="matrix(-1, 0, 0, 1, -803.25, 0)" xlink:href="#linear-gradient-2"/><linearGradient id="linear-gradient-65" x1="-1051.38" y1="102.17" x2="-1041.07" y2="102.17" gradientTransform="matrix(-1, 0, 0, 1, -803.25, 0)" xlink:href="#linear-gradient-2"/><linearGradient id="linear-gradient-66" x1="-1026.07" y1="127.56" x2="-1015.76" y2="127.56" gradientTransform="matrix(-1, 0, 0, 1, -803.25, 0)" xlink:href="#linear-gradient-2"/><linearGradient id="linear-gradient-67" x1="-1033.78" y1="123.1" x2="-1023.47" y2="123.1" gradientTransform="matrix(-1, 0, 0, 1, -803.25, 0)" xlink:href="#linear-gradient-2"/><linearGradient id="linear-gradient-68" x1="-1041.49" y1="118.64" x2="-1031.18" y2="118.64" gradientTransform="matrix(-1, 0, 0, 1, -803.25, 0)" xlink:href="#linear-gradient-2"/><linearGradient id="linear-gradient-69" x1="-1049.2" y1="114.18" x2="-1038.89" y2="114.18" gradientTransform="matrix(-1, 0, 0, 1, -803.25, 0)" xlink:href="#linear-gradient-2"/><linearGradient id="linear-gradient-70" x1="-1056.91" y1="109.72" x2="-1046.61" y2="109.72" gradientTransform="matrix(-1, 0, 0, 1, -803.25, 0)" xlink:href="#linear-gradient-2"/><linearGradient id="linear-gradient-71" x1="-1031.6" y1="135.11" x2="-1021.29" y2="135.11" gradientTransform="matrix(-1, 0, 0, 1, -803.25, 0)" xlink:href="#linear-gradient-2"/><linearGradient id="linear-gradient-72" x1="-1039.31" y1="130.65" x2="-1029.01" y2="130.65" gradientTransform="matrix(-1, 0, 0, 1, -803.25, 0)" xlink:href="#linear-gradient-2"/><linearGradient id="linear-gradient-73" x1="-1047.03" y1="126.19" x2="-1036.72" y2="126.19" gradientTransform="matrix(-1, 0, 0, 1, -803.25, 0)" xlink:href="#linear-gradient-2"/><linearGradient id="linear-gradient-74" x1="-1054.74" y1="121.72" x2="-1044.43" y2="121.72" gradientTransform="matrix(-1, 0, 0, 1, -803.25, 0)" xlink:href="#linear-gradient-2"/><linearGradient id="linear-gradient-75" x1="-1062.45" y1="117.26" x2="-1052.14" y2="117.26" gradientTransform="matrix(-1, 0, 0, 1, -803.25, 0)" xlink:href="#linear-gradient-2"/><linearGradient id="linear-gradient-76" x1="-1037.14" y1="142.65" x2="-1026.83" y2="142.65" gradientTransform="matrix(-1, 0, 0, 1, -803.25, 0)" xlink:href="#linear-gradient-2"/><linearGradient id="linear-gradient-77" x1="-1044.85" y1="138.19" x2="-1034.54" y2="138.19" gradientTransform="matrix(-1, 0, 0, 1, -803.25, 0)" xlink:href="#linear-gradient-2"/><linearGradient id="linear-gradient-78" x1="-1052.56" y1="133.73" x2="-1042.25" y2="133.73" gradientTransform="matrix(-1, 0, 0, 1, -803.25, 0)" xlink:href="#linear-gradient-2"/><linearGradient id="linear-gradient-79" x1="-1060.27" y1="129.27" x2="-1049.96" y2="129.27" gradientTransform="matrix(-1, 0, 0, 1, -803.25, 0)" xlink:href="#linear-gradient-2"/><linearGradient id="linear-gradient-80" x1="-1067.98" y1="124.81" x2="-1057.67" y2="124.81" gradientTransform="matrix(-1, 0, 0, 1, -803.25, 0)" xlink:href="#linear-gradient-2"/><linearGradient id="linear-gradient-81" x1="-1042.67" y1="150.2" x2="-1032.36" y2="150.2" gradientTransform="matrix(-1, 0, 0, 1, -803.25, 0)" xlink:href="#linear-gradient-2"/><linearGradient id="linear-gradient-82" x1="-1050.38" y1="145.74" x2="-1040.07" y2="145.74" gradientTransform="matrix(-1, 0, 0, 1, -803.25, 0)" xlink:href="#linear-gradient-2"/><linearGradient id="linear-gradient-83" x1="-1058.09" y1="141.28" x2="-1047.78" y2="141.28" gradientTransform="matrix(-1, 0, 0, 1, -803.25, 0)" xlink:href="#linear-gradient-2"/><linearGradient id="linear-gradient-84" x1="-1065.8" y1="136.81" x2="-1055.5" y2="136.81" gradientTransform="matrix(-1, 0, 0, 1, -803.25, 0)" xlink:href="#linear-gradient-2"/><linearGradient id="linear-gradient-85" x1="-1073.52" y1="132.35" x2="-1063.21" y2="132.35" gradientTransform="matrix(-1, 0, 0, 1, -803.25, 0)" xlink:href="#linear-gradient-2"/><linearGradient id="linear-gradient-86" x1="-1048.2" y1="157.75" x2="-1037.89" y2="157.75" gradientTransform="matrix(-1, 0, 0, 1, -803.25, 0)" xlink:href="#linear-gradient-2"/><linearGradient id="linear-gradient-87" x1="-1055.91" y1="153.28" x2="-1045.61" y2="153.28" gradientTransform="matrix(-1, 0, 0, 1, -803.25, 0)" xlink:href="#linear-gradient-2"/><linearGradient id="linear-gradient-88" x1="-1063.63" y1="148.82" x2="-1053.32" y2="148.82" gradientTransform="matrix(-1, 0, 0, 1, -803.25, 0)" xlink:href="#linear-gradient-2"/><linearGradient id="linear-gradient-89" x1="-1071.34" y1="144.36" x2="-1061.03" y2="144.36" gradientTransform="matrix(-1, 0, 0, 1, -803.25, 0)" xlink:href="#linear-gradient-2"/><linearGradient id="linear-gradient-90" x1="-1079.05" y1="139.9" x2="-1068.74" y2="139.9" gradientTransform="matrix(-1, 0, 0, 1, -803.25, 0)" xlink:href="#linear-gradient-2"/><linearGradient id="linear-gradient-91" x1="-1053.74" y1="165.29" x2="-1043.43" y2="165.29" gradientTransform="matrix(-1, 0, 0, 1, -803.25, 0)" xlink:href="#linear-gradient-2"/><linearGradient id="linear-gradient-92" x1="-1061.45" y1="160.83" x2="-1051.14" y2="160.83" gradientTransform="matrix(-1, 0, 0, 1, -803.25, 0)" xlink:href="#linear-gradient-2"/><linearGradient id="linear-gradient-93" x1="-1069.16" y1="156.37" x2="-1058.85" y2="156.37" gradientTransform="matrix(-1, 0, 0, 1, -803.25, 0)" xlink:href="#linear-gradient-2"/><linearGradient id="linear-gradient-94" x1="-1076.87" y1="151.91" x2="-1066.56" y2="151.91" gradientTransform="matrix(-1, 0, 0, 1, -803.25, 0)" xlink:href="#linear-gradient-2"/><linearGradient id="linear-gradient-95" x1="-1084.58" y1="147.44" x2="-1074.27" y2="147.44" gradientTransform="matrix(-1, 0, 0, 1, -803.25, 0)" xlink:href="#linear-gradient-2"/><linearGradient id="linear-gradient-96" x1="209.78" y1="204.56" x2="272.4" y2="204.56" gradientUnits="userSpaceOnUse"><stop offset="0" stop-color="#196e94"/><stop offset="1" stop-color="#245575"/></linearGradient><linearGradient id="linear-gradient-97" x1="195.26" y1="182.02" x2="215.42" y2="182.02" xlink:href="#linear-gradient-96"/><linearGradient id="linear-gradient-98" x1="-976.85" y1="243.95" x2="-941.85" y2="243.95" gradientTransform="matrix(-1, 0, 0, 1, -827.03, -47.8)" gradientUnits="userSpaceOnUse"><stop offset="0" stop-color="#d6eaed"/><stop offset="1" stop-color="#abcfd9"/></linearGradient><linearGradient id="linear-gradient-99" x1="-941.85" y1="246.07" x2="-918.57" y2="246.07" gradientTransform="matrix(-1, 0, 0, 1, -827.03, -47.8)" xlink:href="#linear-gradient-11"/><linearGradient id="linear-gradient-100" x1="91.53" y1="186.12" x2="149.82" y2="186.12" gradientTransform="matrix(1, 0, 0, 1, 0, 0)" xlink:href="#linear-gradient-98"/><linearGradient id="linear-gradient-101" x1="114.18" y1="186.83" x2="149.82" y2="186.83" xlink:href="#linear-gradient"/><linearGradient id="linear-gradient-102" x1="197.27" y1="163.15" x2="192" y2="216.12" gradientTransform="matrix(1, 0, 0, 1, 0, 0)" xlink:href="#linear-gradient-98"/><linearGradient id="linear-gradient-103" x1="162.13" y1="212.59" x2="208.47" y2="202.69" xlink:href="#linear-gradient"/><linearGradient id="linear-gradient-104" x1="-941.21" y1="-98.32" x2="-928.68" y2="-98.32" gradientTransform="matrix(-1, -0.58, 0, 1, -755.88, -230.06)" xlink:href="#linear-gradient-11"/><linearGradient id="linear-gradient-105" x1="191.83" y1="214.42" x2="198.22" y2="214.42" gradientTransform="matrix(1, 0, 0, 1, 0, 0)" xlink:href="#linear-gradient-6"/><linearGradient id="linear-gradient-106" x1="191.83" y1="214.33" x2="197.85" y2="214.33" gradientUnits="userSpaceOnUse"><stop offset="0" stop-color="#302b5b"/><stop offset="1" stop-color="#3d4189"/></linearGradient><linearGradient id="linear-gradient-107" x1="281.25" y1="195.23" x2="283.51" y2="195.23" gradientTransform="matrix(-1, 0, 0, 1, 484.05, 0)" xlink:href="#linear-gradient-96"/><linearGradient id="linear-gradient-108" x1="281.61" y1="195.23" x2="283.15" y2="195.23" gradientTransform="matrix(-1, 0, 0, 1, 484.05, 0)" gradientUnits="userSpaceOnUse"><stop offset="0" stop-color="#fde04a"/><stop offset="1" stop-color="#eacd2b"/></linearGradient><linearGradient id="linear-gradient-109" x1="207.59" y1="514.5" x2="203.21" y2="514.5" gradientTransform="matrix(1, -0.58, 0, 1, -71.15, -250.61)" xlink:href="#linear-gradient-96"/><linearGradient id="linear-gradient-110" x1="281.25" y1="200.41" x2="283.51" y2="200.41" gradientTransform="matrix(-1, 0, 0, 1, 484.05, 0)" xlink:href="#linear-gradient-96"/><linearGradient id="linear-gradient-111" x1="281.61" y1="200.41" x2="283.15" y2="200.41" xlink:href="#linear-gradient-108"/><linearGradient id="linear-gradient-112" x1="207.59" y1="519.69" x2="203.21" y2="519.69" gradientTransform="matrix(1, -0.58, 0, 1, -71.15, -250.61)" xlink:href="#linear-gradient-96"/><linearGradient id="linear-gradient-113" x1="281.25" y1="205.6" x2="283.51" y2="205.6" gradientTransform="matrix(-1, 0, 0, 1, 484.05, 0)" xlink:href="#linear-gradient-96"/><linearGradient id="linear-gradient-114" x1="281.61" y1="205.6" x2="283.15" y2="205.6" xlink:href="#linear-gradient-108"/><linearGradient id="linear-gradient-115" x1="207.59" y1="524.87" x2="203.21" y2="524.87" gradientTransform="matrix(1, -0.58, 0, 1, -71.15, -250.61)" xlink:href="#linear-gradient-96"/><linearGradient id="linear-gradient-116" x1="281.25" y1="210.79" x2="283.51" y2="210.79" gradientTransform="matrix(-1, 0, 0, 1, 484.05, 0)" xlink:href="#linear-gradient-96"/><linearGradient id="linear-gradient-117" x1="281.61" y1="210.79" x2="283.15" y2="210.79" xlink:href="#linear-gradient-108"/><linearGradient id="linear-gradient-118" x1="207.59" y1="530.06" x2="203.21" y2="530.06" gradientTransform="matrix(1, -0.58, 0, 1, -71.15, -250.61)" xlink:href="#linear-gradient-96"/><linearGradient id="linear-gradient-119" x1="281.25" y1="215.98" x2="283.51" y2="215.98" gradientTransform="matrix(-1, 0, 0, 1, 484.05, 0)" xlink:href="#linear-gradient-96"/><linearGradient id="linear-gradient-120" x1="281.61" y1="215.98" x2="283.15" y2="215.98" xlink:href="#linear-gradient-108"/><linearGradient id="linear-gradient-121" x1="207.59" y1="535.25" x2="203.21" y2="535.25" gradientTransform="matrix(1, -0.58, 0, 1, -71.15, -250.61)" xlink:href="#linear-gradient-96"/><linearGradient id="linear-gradient-122" x1="6.21" y1="275.17" x2="76.03" y2="275.17" gradientTransform="translate(182.16) scale(1.34 1)" xlink:href="#linear-gradient"/><linearGradient id="linear-gradient-123" x1="85.72" y1="216.15" x2="95.44" y2="216.15" xlink:href="#linear-gradient-2"/><linearGradient id="linear-gradient-124" x1="85.72" y1="215.86" x2="95.44" y2="215.86" xlink:href="#linear-gradient"/><linearGradient id="linear-gradient-125" x1="71.15" y1="167.88" x2="110.01" y2="167.88" xlink:href="#linear-gradient-4"/><linearGradient id="linear-gradient-126" x1="84.86" y1="165.16" x2="102.07" y2="219.71" xlink:href="#linear-gradient"/><linearGradient id="linear-gradient-127" x1="139.24" y1="140.04" x2="147.76" y2="140.04" xlink:href="#linear-gradient-2"/><linearGradient id="linear-gradient-128" x1="139.24" y1="139.79" x2="147.76" y2="139.79" xlink:href="#linear-gradient"/><linearGradient id="linear-gradient-129" x1="126.48" y1="97.73" x2="160.54" y2="97.73" xlink:href="#linear-gradient-4"/><linearGradient id="linear-gradient-130" x1="138.49" y1="95.34" x2="153.58" y2="143.17" xlink:href="#linear-gradient"/><linearGradient id="linear-gradient-131" x1="155.56" y1="274.19" x2="365.13" y2="274.19" gradientTransform="matrix(1, 0, 0, 1, 0, 0)" xlink:href="#linear-gradient-108"/><linearGradient id="linear-gradient-132" x1="205.62" y1="288.88" x2="121.05" y2="309.24" gradientUnits="userSpaceOnUse"><stop offset="0" stop-color="#fff"/><stop offset="0.58" stop-color="#eeeeef"/><stop offset="1" stop-color="#dfe0e1"/></linearGradient><linearGradient id="linear-gradient-133" x1="155.56" y1="294.77" x2="200.12" y2="294.77" gradientTransform="matrix(1, 0, 0, 1, 0, 0)" xlink:href="#linear-gradient-108"/><linearGradient id="linear-gradient-134" x1="268.57" y1="229.69" x2="360.16" y2="210.39" xlink:href="#linear-gradient-132"/><linearGradient id="linear-gradient-135" x1="153.86" y1="300.62" x2="219.12" y2="342.91" gradientUnits="userSpaceOnUse"><stop offset="0" stop-color="#e8e9ea"/><stop offset="0.3" stop-color="#fff"/><stop offset="0.53" stop-color="#fbfcfc"/><stop offset="0.74" stop-color="#f1f1f2"/><stop offset="0.94" stop-color="#dfdfe1"/><stop offset="1" stop-color="#d7d8da"/></linearGradient><linearGradient id="linear-gradient-136" x1="178.83" y1="280" x2="165.91" y2="280" gradientUnits="userSpaceOnUse"><stop offset="0" stop-color="#b79218"/><stop offset="1" stop-color="#eac53f"/></linearGradient><linearGradient id="linear-gradient-137" x1="283.84" y1="218.12" x2="269.22" y2="218.12" gradientUnits="userSpaceOnUse"><stop offset="0" stop-color="#eac53f"/><stop offset="1" stop-color="#b79218"/></linearGradient><linearGradient id="linear-gradient-138" x1="-1078.29" y1="338.43" x2="-1051.25" y2="338.43" gradientTransform="matrix(-1, 0, 0, 1, -829.21, 0)" gradientUnits="userSpaceOnUse"><stop offset="0" stop-color="#1a1640"/><stop offset="0.45" stop-color="#171642"/><stop offset="1" stop-color="#302b5b"/></linearGradient><linearGradient id="linear-gradient-139" x1="230.62" y1="339.45" x2="244.73" y2="339.45" xlink:href="#linear-gradient-96"/><linearGradient id="linear-gradient-140" x1="-1073.61" y1="339.46" x2="-1060.19" y2="339.46" gradientTransform="matrix(-1, 0, 0, 1, -829.21, 0)" xlink:href="#linear-gradient-11"/><linearGradient id="linear-gradient-141" x1="-1071.49" y1="338.74" x2="-1060.19" y2="338.74" gradientTransform="matrix(-1, 0, 0, 1, -829.21, 0)" xlink:href="#linear-gradient-98"/><linearGradient id="linear-gradient-142" x1="115.99" y1="334.13" x2="117.84" y2="334.13" gradientTransform="matrix(-1, 0, 0, 1, 356.06, 0)" xlink:href="#linear-gradient-138"/><linearGradient id="linear-gradient-143" x1="118.07" y1="342.14" x2="119.93" y2="342.14" gradientTransform="matrix(-1, 0, 0, 1, 356.06, 0)" xlink:href="#linear-gradient-138"/><linearGradient id="linear-gradient-144" x1="-1061.31" y1="341.34" x2="-1060.19" y2="341.34" xlink:href="#linear-gradient-138"/><linearGradient id="linear-gradient-145" x1="-1063.17" y1="334.96" x2="-1062.18" y2="334.96" xlink:href="#linear-gradient-138"/><linearGradient id="linear-gradient-146" x1="-1183.11" y1="278.64" x2="-1156.07" y2="278.64" xlink:href="#linear-gradient-138"/><linearGradient id="linear-gradient-147" x1="335.44" y1="279.67" x2="349.56" y2="279.67" xlink:href="#linear-gradient-96"/><linearGradient id="linear-gradient-148" x1="-1178.43" y1="279.67" x2="-1165.01" y2="279.67" gradientTransform="matrix(-1, 0, 0, 1, -829.21, 0)" xlink:href="#linear-gradient-11"/><linearGradient id="linear-gradient-149" x1="-1176.31" y1="278.95" x2="-1165.01" y2="278.95" gradientTransform="matrix(-1, 0, 0, 1, -829.21, 0)" xlink:href="#linear-gradient-98"/><linearGradient id="linear-gradient-150" x1="11.16" y1="274.35" x2="13.02" y2="274.35" gradientTransform="matrix(-1, 0, 0, 1, 356.06, 0)" xlink:href="#linear-gradient-138"/><linearGradient id="linear-gradient-151" x1="13.25" y1="282.35" x2="15.1" y2="282.35" gradientTransform="matrix(-1, 0, 0, 1, 356.06, 0)" xlink:href="#linear-gradient-138"/><linearGradient id="linear-gradient-152" x1="-1166.14" y1="281.56" x2="-1165.01" y2="281.56" xlink:href="#linear-gradient-138"/><linearGradient id="linear-gradient-153" x1="-1167.99" y1="275.17" x2="-1167" y2="275.17" xlink:href="#linear-gradient-138"/><linearGradient id="linear-gradient-154" x1="260.24" y1="268.91" x2="306.09" y2="268.91" gradientTransform="matrix(1, 0, 0, 1, 0, 0)" xlink:href="#linear-gradient-138"/><linearGradient id="linear-gradient-155" x1="306.06" y1="246.84" x2="282.55" y2="286.49" xlink:href="#linear-gradient"/><linearGradient id="linear-gradient-156" x1="304.65" y1="251.24" x2="336.8" y2="251.24" gradientTransform="matrix(1, 0, 0, 1, 0, 0)" xlink:href="#linear-gradient-138"/><linearGradient id="linear-gradient-157" x1="198.27" y1="267.29" x2="271.7" y2="267.29" gradientTransform="matrix(1, 0, 0, 1, 0, 0)" xlink:href="#linear-gradient-138"/><linearGradient id="linear-gradient-158" x1="211.87" y1="255.02" x2="270.12" y2="278.17" gradientTransform="matrix(1, 0, 0, 1, 0, 0)" xlink:href="#linear-gradient-14"/><linearGradient id="linear-gradient-159" x1="280.89" y1="219.62" x2="344.07" y2="219.62" gradientTransform="matrix(1, 0, 0, 1, 0, 0)" xlink:href="#linear-gradient-138"/><linearGradient id="linear-gradient-160" x1="319.66" y1="231.08" x2="268.08" y2="360.03" xlink:href="#linear-gradient-132"/><linearGradient id="linear-gradient-161" x1="348.88" y1="313.35" x2="222.94" y2="293.04" gradientTransform="matrix(1, 0, 0, 1, 0, 0)" xlink:href="#linear-gradient-108"/><linearGradient id="linear-gradient-162" x1="261.16" y1="289.01" x2="265.77" y2="289.01" gradientTransform="matrix(1, 0, 0, 1, 0, 0)" xlink:href="#linear-gradient-108"/><linearGradient id="linear-gradient-163" x1="262.09" y1="291.14" x2="267.25" y2="291.14" gradientUnits="userSpaceOnUse"><stop offset="0" stop-color="#eac53f"/><stop offset="1" stop-color="#d0b23b"/></linearGradient><linearGradient id="linear-gradient-164" x1="262.14" y1="290.86" x2="267.16" y2="290.86" gradientTransform="matrix(1, 0, 0, 1, 0, 0)" xlink:href="#linear-gradient-108"/><linearGradient id="linear-gradient-165" x1="265.05" y1="290.58" x2="277.95" y2="290.58" xlink:href="#linear-gradient-163"/><linearGradient id="linear-gradient-166" x1="265.12" y1="290.24" x2="277.93" y2="290.24" gradientTransform="matrix(1, 0, 0, 1, 0, 0)" xlink:href="#linear-gradient-108"/><linearGradient id="linear-gradient-167" x1="294.09" y1="278.08" x2="303.48" y2="278.08" gradientTransform="matrix(1, 0, 0, 1, 0, 0)" xlink:href="#linear-gradient-138"/><linearGradient id="linear-gradient-168" x1="322.38" y1="260.94" x2="331.76" y2="260.94" gradientTransform="matrix(1, 0, 0, 1, 0, 0)" xlink:href="#linear-gradient-138"/><linearGradient id="linear-gradient-169" x1="186.74" y1="314.34" x2="249.98" y2="314.34" gradientUnits="userSpaceOnUse"><stop offset="0" stop-color="#d7d8da"/><stop offset="0.74" stop-color="#f4f4f5"/><stop offset="1" stop-color="#fff"/></linearGradient><linearGradient id="linear-gradient-170" x1="272.85" y1="-77.17" x2="274.4" y2="-77.17" gradientTransform="matrix(0.87, 0.5, -1, 0.58, -181.11, 142.06)" xlink:href="#linear-gradient-138"/><linearGradient id="linear-gradient-171" x1="275.15" y1="-77.17" x2="276.7" y2="-77.17" gradientTransform="matrix(0.87, 0.5, -1, 0.58, -181.11, 142.06)" xlink:href="#linear-gradient-138"/><linearGradient id="linear-gradient-172" x1="277.45" y1="-77.17" x2="279" y2="-77.17" gradientTransform="matrix(0.87, 0.5, -1, 0.58, -181.11, 142.06)" xlink:href="#linear-gradient-138"/><linearGradient id="linear-gradient-173" x1="279.75" y1="-77.17" x2="281.3" y2="-77.17" gradientTransform="matrix(0.87, 0.5, -1, 0.58, -181.11, 142.06)" xlink:href="#linear-gradient-138"/><linearGradient id="linear-gradient-174" x1="282.05" y1="-77.17" x2="283.6" y2="-77.17" gradientTransform="matrix(0.87, 0.5, -1, 0.58, -181.11, 142.06)" xlink:href="#linear-gradient-138"/><linearGradient id="linear-gradient-175" x1="284.35" y1="-77.17" x2="285.9" y2="-77.17" gradientTransform="matrix(0.87, 0.5, -1, 0.58, -181.11, 142.06)" xlink:href="#linear-gradient-138"/><linearGradient id="linear-gradient-176" x1="286.65" y1="-77.17" x2="288.2" y2="-77.17" gradientTransform="matrix(0.87, 0.5, -1, 0.58, -181.11, 142.06)" xlink:href="#linear-gradient-138"/><linearGradient id="linear-gradient-177" x1="288.94" y1="-77.17" x2="290.5" y2="-77.17" gradientTransform="matrix(0.87, 0.5, -1, 0.58, -181.11, 142.06)" xlink:href="#linear-gradient-138"/><linearGradient id="linear-gradient-178" x1="291.24" y1="-77.17" x2="292.8" y2="-77.17" gradientTransform="matrix(0.87, 0.5, -1, 0.58, -181.11, 142.06)" xlink:href="#linear-gradient-138"/><linearGradient id="linear-gradient-179" x1="293.54" y1="-77.17" x2="295.1" y2="-77.17" gradientTransform="matrix(0.87, 0.5, -1, 0.58, -181.11, 142.06)" xlink:href="#linear-gradient-138"/><linearGradient id="linear-gradient-180" x1="157.13" y1="305.41" x2="164.02" y2="305.41" gradientTransform="matrix(1, 0, 0, 1, 0, 0)" xlink:href="#linear-gradient-11"/><linearGradient id="linear-gradient-181" x1="191.72" y1="331.43" x2="215.03" y2="331.43" gradientTransform="matrix(1, 0, 0, 1, 0, 0)" xlink:href="#linear-gradient-11"/><linearGradient id="linear-gradient-182" x1="157.78" y1="305.74" x2="164.02" y2="305.74" gradientTransform="matrix(1, 0, 0, 1, 0, 0)" xlink:href="#linear-gradient-98"/><linearGradient id="linear-gradient-183" x1="192.77" y1="331.22" x2="215.03" y2="331.22" gradientTransform="matrix(1, 0, 0, 1, 0, 0)" xlink:href="#linear-gradient-98"/><linearGradient id="linear-gradient-184" x1="150.51" y1="327.38" x2="223.94" y2="327.38" gradientUnits="userSpaceOnUse"><stop offset="0" stop-color="#eacd2b"/><stop offset="1" stop-color="#fde04a"/></linearGradient><linearGradient id="linear-gradient-185" x1="150.98" y1="320.49" x2="223.94" y2="320.49" gradientTransform="matrix(1, 0, 0, 1, 0, 0)" xlink:href="#linear-gradient-108"/><linearGradient id="linear-gradient-186" x1="364.32" y1="236.39" x2="354.74" y2="238.7" xlink:href="#linear-gradient-132"/><linearGradient id="linear-gradient-187" x1="364.32" y1="243.22" x2="355.49" y2="245.35" gradientTransform="matrix(1, 0, 0, 1, 0, 0)" xlink:href="#linear-gradient-98"/></defs><g class="cls-1"><g id="Layer_2" data-name="Layer 2"><rect class="cls-2" x="163.42" y="91.35" width="37.78" height="6.58"/><path class="cls-3" d="M237.36,144.91a5.17,5.17,0,0,1-.71.34,6.65,6.65,0,0,1-5.3-.09,1.89,1.89,0,0,1-1-1.3h0V117.28l8.51-.92v26.37C238.93,143.47,238.44,144.28,237.36,144.91Z" transform="translate(-71.15 -47.8)"/><path class="cls-4" d="M237.36,144.91a5.17,5.17,0,0,1-.71.34c0-2.48-.18-6.84-2-9.42a81.22,81.22,0,0,1-4.34-7.61V117.28l8.51-.92v26.37C238.93,143.47,238.44,144.28,237.36,144.91Z" transform="translate(-71.15 -47.8)"/><path class="cls-5" d="M251.6,112.65a17,17,0,0,1-33.91,2.26,18.66,18.66,0,0,1-.14-2.26c0-9.22,7.33-62.71,16.47-64.78a2.13,2.13,0,0,1,.55-.07C244,47.8,251.6,103.25,251.6,112.65Z" transform="translate(-71.15 -47.8)"/><path class="cls-6" d="M251.6,112.65a17,17,0,0,1-33.91,2.26c2.62,1.67,6.92,3,13.32.94,9.89-3.17,5-51.35,3-68a2.13,2.13,0,0,1,.55-.07C244,47.8,251.6,103.25,251.6,112.65Z" transform="translate(-71.15 -47.8)"/><rect class="cls-7" x="177.45" y="208.76" width="127.28" height="1" transform="translate(-143.51 100.91) rotate(-30.02)"/><path class="cls-8" d="M305.54,176.91v9.74h0a2.33,2.33,0,0,1-1.32,1.79l-14.6,8.42a7.08,7.08,0,0,1-6.43,0L266.13,187a2.33,2.33,0,0,1-1.32-1.76h0v-9.75l.77.05a4,4,0,0,1,.56-.39l14.61-8.43a7.08,7.08,0,0,1,6.43,0l17,9.91a4.15,4.15,0,0,1,.41.27Z" transform="translate(-71.15 -47.8)"/><path class="cls-9" d="M305.54,176.91V178a3.61,3.61,0,0,1-1.06.88l-14.6,8.43a7.59,7.59,0,0,1-7,0l-12-7-5-2.93a3.63,3.63,0,0,1-1.06-.89v-1.1l.77.05a4,4,0,0,1,.56-.39l14.61-8.43a7.08,7.08,0,0,1,6.43,0l17,9.91a4.15,4.15,0,0,1,.41.27Z" transform="translate(-71.15 -47.8)"/><path class="cls-10" d="M305.52,176.74a2.32,2.32,0,0,1-1.31,1.7l-2.5,1.44-12.11,7a7.06,7.06,0,0,1-6.42,0l-12-7-5-2.92a1.75,1.75,0,0,1,0-3.38l1-.55,13.64-7.89a7.12,7.12,0,0,1,6.42,0l9.79,5.7,3.76,2.19,3.5,2A2.32,2.32,0,0,1,305.52,176.74Z" transform="translate(-71.15 -47.8)"/><path class="cls-11" d="M305.52,176.74a2.32,2.32,0,0,1-1.31,1.7l-2.5,1.44H285.59v-9H297l3.76,2.19,3.5,2A2.32,2.32,0,0,1,305.52,176.74Z" transform="translate(-71.15 -47.8)"/><path class="cls-12" d="M285.59,133.13c3.59,0,5.88,2.09,5.88,3.53v39.7c0,1.43-2.29,3.52-5.88,3.52s-5.88-2.09-5.88-3.52v-39.7C279.71,135.22,282,133.13,285.59,133.13Z" transform="translate(-71.15 -47.8)"/><polygon class="cls-13" points="178.27 45.88 216.86 101.33 216 101.31 215.35 101.29 214.89 101.28 173.98 45.48 216.2 21.15 216.54 21.16 217.32 21.17 218.18 21.19 178.25 45.85 178.27 45.88"/><polygon class="cls-14" points="178.25 45.85 178.27 45.88 175.95 45.53 175.09 45.51 175.09 45.51 174.44 45.49 173.98 45.48 216.2 21.15 216.54 21.16 217.32 21.17 218.18 21.19 178.25 45.85"/><polygon class="cls-9" points="175.95 45.53 212.13 94.87 216.86 101.33 259.06 76.91 232.81 41.13 218.18 21.19 175.95 45.53"/><polygon class="cls-15" points="258.54 76.8 218.08 21.67 176.48 45.64 216.96 100.85 258.54 76.8"/><g class="cls-16"><path class="cls-17" d="M246.25,93.31,288.47,69h-.77L245.59,93.29l40.91,55.8.65,0-40.91-55.8Z" transform="translate(-71.15 -47.8)"/></g><path class="cls-18" d="M282.83,141.44c-1.46-21.94,10.33-40.59,20.67-52.52L289.23,69.47l-41.6,24Z" transform="translate(-71.15 -47.8)"/><path class="cls-19" d="M255.85,99.93a1,1,0,0,0,.49-.12l5-2.91a.79.79,0,0,0,.38-.52.74.74,0,0,0-.14-.62l-3.39-4.62a1,1,0,0,0-.83-.41,1,1,0,0,0-.49.13l-5,2.91a.75.75,0,0,0-.38.51.77.77,0,0,0,.14.63L255,99.53a1,1,0,0,0,.83.4Z" transform="translate(-71.15 -47.8)"/><path class="cls-20" d="M263.56,95.47a.92.92,0,0,0,.49-.13l5-2.91a.8.8,0,0,0,.39-.51.81.81,0,0,0-.15-.63l-3.39-4.62a1,1,0,0,0-.83-.4,1,1,0,0,0-.49.13l-5,2.91a.75.75,0,0,0-.38.51.78.78,0,0,0,.14.62l3.39,4.63a1,1,0,0,0,.83.4Z" transform="translate(-71.15 -47.8)"/><path class="cls-21" d="M271.27,91a.9.9,0,0,0,.49-.13l5-2.91a.77.77,0,0,0,.39-.51.81.81,0,0,0-.15-.63l-3.39-4.62a1,1,0,0,0-.82-.4,1.06,1.06,0,0,0-.5.12l-5,2.91a.77.77,0,0,0-.38.52.78.78,0,0,0,.14.62l3.39,4.62A1,1,0,0,0,271.27,91Z" transform="translate(-71.15 -47.8)"/><path class="cls-22" d="M279,86.55a1,1,0,0,0,.49-.13l5-2.91a.79.79,0,0,0,.39-.51.8.8,0,0,0-.15-.63l-3.38-4.62a1.05,1.05,0,0,0-.83-.41,1,1,0,0,0-.49.13l-5,2.91a.76.76,0,0,0-.24,1.14l3.38,4.62a1,1,0,0,0,.83.41Z" transform="translate(-71.15 -47.8)"/><path class="cls-23" d="M286.69,82.09a1,1,0,0,0,.49-.13l5.05-2.91a.76.76,0,0,0,.23-1.14l-3.38-4.62a1,1,0,0,0-.83-.41,1,1,0,0,0-.49.13l-5,2.91a.79.79,0,0,0-.39.51.8.8,0,0,0,.15.63l3.38,4.62a1,1,0,0,0,.83.41Z" transform="translate(-71.15 -47.8)"/><path class="cls-24" d="M261.38,107.48a.9.9,0,0,0,.49-.13l5-2.91a.79.79,0,0,0,.39-.51.8.8,0,0,0-.15-.63l-3.38-4.62a1,1,0,0,0-.83-.4,1,1,0,0,0-.49.12l-5.05,2.91a.8.8,0,0,0-.38.52.79.79,0,0,0,.15.62l3.38,4.62a1,1,0,0,0,.83.41Z" transform="translate(-71.15 -47.8)"/><path class="cls-25" d="M269.09,103a1,1,0,0,0,.49-.13l5-2.91a.79.79,0,0,0,.39-.51.8.8,0,0,0-.15-.63l-3.38-4.62a1,1,0,0,0-.83-.41,1,1,0,0,0-.49.13l-5,2.91a.79.79,0,0,0-.39.51.8.8,0,0,0,.15.63l3.38,4.62a1,1,0,0,0,.83.41Z" transform="translate(-71.15 -47.8)"/><path class="cls-26" d="M276.8,98.56a1,1,0,0,0,.49-.13l5-2.91a.77.77,0,0,0,.38-.52.82.82,0,0,0-.14-.62l-3.39-4.62a1,1,0,0,0-.83-.41,1,1,0,0,0-.49.13l-5,2.91a.79.79,0,0,0-.39.51.8.8,0,0,0,.15.63L276,98.15a1,1,0,0,0,.82.41Z" transform="translate(-71.15 -47.8)"/><path class="cls-27" d="M284.52,94.09A1,1,0,0,0,285,94l5-2.91a.77.77,0,0,0,.38-.52.78.78,0,0,0-.14-.62l-3.39-4.63a1,1,0,0,0-.83-.4,1,1,0,0,0-.49.13l-5,2.91a.8.8,0,0,0-.39.51.78.78,0,0,0,.15.62l3.39,4.63a1,1,0,0,0,.83.4Z" transform="translate(-71.15 -47.8)"/><path class="cls-28" d="M292.23,89.63a1,1,0,0,0,.49-.13l5-2.91a.76.76,0,0,0,.24-1.13l-3.39-4.63a1,1,0,0,0-.83-.4,1,1,0,0,0-.49.13l-5,2.91a.73.73,0,0,0-.38.51.74.74,0,0,0,.14.62l3.39,4.63a1,1,0,0,0,.83.4Z" transform="translate(-71.15 -47.8)"/><path class="cls-29" d="M266.92,115a1,1,0,0,0,.49-.12l5-2.91a.77.77,0,0,0,.38-.52.74.74,0,0,0-.14-.62l-3.39-4.62a1,1,0,0,0-.83-.41.9.9,0,0,0-.49.13l-5,2.91a.82.82,0,0,0-.39.51.8.8,0,0,0,.15.63l3.39,4.62a1,1,0,0,0,.82.4Z" transform="translate(-71.15 -47.8)"/><path class="cls-30" d="M274.63,110.56a1,1,0,0,0,.49-.12l5-2.92a.73.73,0,0,0,.38-.51.74.74,0,0,0-.14-.62L277,101.76a1,1,0,0,0-.83-.4,1,1,0,0,0-.49.13l-5,2.91a.75.75,0,0,0-.38.51.77.77,0,0,0,.14.63l3.39,4.62a1,1,0,0,0,.83.4Z" transform="translate(-71.15 -47.8)"/><path class="cls-31" d="M282.34,106.1a1,1,0,0,0,.49-.13l5-2.91a.75.75,0,0,0,.38-.51.77.77,0,0,0-.14-.63l-3.39-4.62a1,1,0,0,0-.83-.4,1,1,0,0,0-.49.12l-5,2.92a.73.73,0,0,0-.38.51.74.74,0,0,0,.14.62l3.39,4.63a1,1,0,0,0,.83.4Z" transform="translate(-71.15 -47.8)"/><path class="cls-32" d="M290.05,101.64a1,1,0,0,0,.49-.13l5-2.91a.82.82,0,0,0,.39-.51.8.8,0,0,0-.15-.63l-3.39-4.62a1,1,0,0,0-.83-.41,1.05,1.05,0,0,0-.49.13l-5,2.91a.77.77,0,0,0-.38.52.74.74,0,0,0,.14.62l3.39,4.62a1,1,0,0,0,.83.41Z" transform="translate(-71.15 -47.8)"/><path class="cls-33" d="M297.76,97.18a1,1,0,0,0,.49-.13l5-2.91a.79.79,0,0,0,.39-.51.8.8,0,0,0-.15-.63l-3.39-4.62a1,1,0,0,0-.82-.41,1.06,1.06,0,0,0-.5.13l-5,2.91a.77.77,0,0,0-.38.52.78.78,0,0,0,.14.62l3.39,4.62a1,1,0,0,0,.83.41Z" transform="translate(-71.15 -47.8)"/><path class="cls-34" d="M272.45,122.57a1,1,0,0,0,.49-.13l5-2.91a.77.77,0,0,0,.38-.51.76.76,0,0,0-.14-.63l-3.39-4.62a1,1,0,0,0-.83-.4,1,1,0,0,0-.49.12l-5,2.91a.77.77,0,0,0-.38.52.74.74,0,0,0,.14.62l3.39,4.62a1,1,0,0,0,.83.41Z" transform="translate(-71.15 -47.8)"/><path class="cls-35" d="M280.16,118.11a.9.9,0,0,0,.49-.13l5-2.91a.82.82,0,0,0,.39-.51.8.8,0,0,0-.15-.63l-3.39-4.62a1,1,0,0,0-.83-.41,1.05,1.05,0,0,0-.49.13l-5,2.91a.77.77,0,0,0-.38.52.78.78,0,0,0,.14.62l3.39,4.62a1,1,0,0,0,.83.41Z" transform="translate(-71.15 -47.8)"/><path class="cls-36" d="M287.87,113.65a1,1,0,0,0,.49-.13l5-2.91a.79.79,0,0,0,.39-.51.8.8,0,0,0-.15-.63l-3.39-4.62a1,1,0,0,0-1.31-.28l-5.05,2.91a.8.8,0,0,0-.38.52.82.82,0,0,0,.14.62l3.39,4.62a1,1,0,0,0,.83.41Z" transform="translate(-71.15 -47.8)"/><path class="cls-37" d="M295.58,109.19a1,1,0,0,0,.49-.13l5-2.91a.76.76,0,0,0,.24-1.14L298,100.39a1,1,0,0,0-.83-.41,1,1,0,0,0-.49.13l-5,2.91a.79.79,0,0,0-.39.51.8.8,0,0,0,.15.63l3.38,4.62a1.05,1.05,0,0,0,.83.41Z" transform="translate(-71.15 -47.8)"/><path class="cls-38" d="M303.29,104.72a1,1,0,0,0,.49-.12l5.05-2.92a.73.73,0,0,0,.38-.51.82.82,0,0,0-.14-.62l-3.39-4.63a1,1,0,0,0-.83-.4.9.9,0,0,0-.49.13l-5,2.91a.77.77,0,0,0-.39.51.79.79,0,0,0,.15.62l3.39,4.63a1,1,0,0,0,.82.4Z" transform="translate(-71.15 -47.8)"/><path class="cls-39" d="M278,130.12a1,1,0,0,0,.49-.13l5-2.91a.76.76,0,0,0,.24-1.14l-3.38-4.62a1,1,0,0,0-.83-.41,1,1,0,0,0-.49.13L274,124a.76.76,0,0,0-.23,1.14l3.38,4.62a1.05,1.05,0,0,0,.83.41Z" transform="translate(-71.15 -47.8)"/><path class="cls-40" d="M285.69,125.65a1,1,0,0,0,.49-.12l5.05-2.91a.8.8,0,0,0,.38-.52.79.79,0,0,0-.15-.62l-3.38-4.62a1,1,0,0,0-.83-.41.9.9,0,0,0-.49.13l-5,2.91a.79.79,0,0,0-.39.51.8.8,0,0,0,.15.63l3.38,4.62A1,1,0,0,0,285.69,125.65Z" transform="translate(-71.15 -47.8)"/><path class="cls-41" d="M293.4,121.19a1,1,0,0,0,.5-.13l5-2.91a.75.75,0,0,0,.38-.51.78.78,0,0,0-.14-.62l-3.39-4.63a1,1,0,0,0-.83-.4.9.9,0,0,0-.49.13l-5,2.91a.77.77,0,0,0-.39.51.79.79,0,0,0,.15.62l3.39,4.63a1,1,0,0,0,.82.4Z" transform="translate(-71.15 -47.8)"/><path class="cls-42" d="M301.12,116.73a1,1,0,0,0,.49-.13l5-2.91a.75.75,0,0,0,.38-.51.73.73,0,0,0-.14-.62l-3.39-4.63a1,1,0,0,0-.83-.4,1,1,0,0,0-.49.12l-5,2.91a.77.77,0,0,0-.38.52.74.74,0,0,0,.14.62l3.39,4.63a1,1,0,0,0,.83.4Z" transform="translate(-71.15 -47.8)"/><path class="cls-43" d="M308.83,112.27a1.05,1.05,0,0,0,.49-.13l5-2.91a.77.77,0,0,0,.38-.51.76.76,0,0,0-.14-.63l-3.39-4.62a1,1,0,0,0-1.32-.28l-5,2.91a.77.77,0,0,0-.38.52.74.74,0,0,0,.14.62l3.39,4.62a1,1,0,0,0,.83.41Z" transform="translate(-71.15 -47.8)"/><path class="cls-44" d="M283.52,137.66a1,1,0,0,0,.49-.13l5-2.91a.75.75,0,0,0,.38-.51.77.77,0,0,0-.14-.62l-3.39-4.63a1,1,0,0,0-.83-.4,1,1,0,0,0-.49.13l-5,2.91a.77.77,0,0,0-.39.51.79.79,0,0,0,.15.62l3.39,4.63A1,1,0,0,0,283.52,137.66Z" transform="translate(-71.15 -47.8)"/><path class="cls-45" d="M291.23,133.2a1,1,0,0,0,.49-.13l5-2.91a.77.77,0,0,0,.38-.51A.76.76,0,0,0,297,129l-3.39-4.62a1.06,1.06,0,0,0-1.32-.28l-5,2.91a.77.77,0,0,0-.38.52.74.74,0,0,0,.14.62l3.39,4.62a1,1,0,0,0,.83.41Z" transform="translate(-71.15 -47.8)"/><path class="cls-46" d="M298.94,128.74a1.05,1.05,0,0,0,.49-.13l5-2.91a.77.77,0,0,0,.38-.51.76.76,0,0,0-.14-.63l-3.39-4.62a1,1,0,0,0-.83-.41,1.05,1.05,0,0,0-.49.13l-5,2.91a.77.77,0,0,0-.38.52.74.74,0,0,0,.14.62l3.39,4.62a1,1,0,0,0,.83.41Z" transform="translate(-71.15 -47.8)"/><path class="cls-47" d="M306.65,124.28a1,1,0,0,0,.49-.13l5-2.91a.82.82,0,0,0,.39-.51.8.8,0,0,0-.15-.63L309,115.48a1,1,0,0,0-.82-.41,1.06,1.06,0,0,0-.5.13l-5,2.91a.77.77,0,0,0-.38.51.76.76,0,0,0,.14.63l3.39,4.62a1.05,1.05,0,0,0,.83.41Z" transform="translate(-71.15 -47.8)"/><path class="cls-48" d="M314.36,119.81a1,1,0,0,0,.49-.12l5-2.91a.76.76,0,0,0,.24-1.14L316.75,111a1,1,0,0,0-.83-.41,1,1,0,0,0-.49.13l-5.05,2.91a.77.77,0,0,0-.38.51.84.84,0,0,0,.14.63l3.39,4.62a1,1,0,0,0,.83.4Z" transform="translate(-71.15 -47.8)"/><path class="cls-49" d="M289.05,145.21a1.05,1.05,0,0,0,.49-.13l5-2.91a.82.82,0,0,0,.39-.51.8.8,0,0,0-.15-.63l-3.39-4.62a1,1,0,0,0-.83-.41,1.05,1.05,0,0,0-.49.13l-5,2.91a.77.77,0,0,0-.38.51.76.76,0,0,0,.14.63l3.39,4.62a1,1,0,0,0,.83.41Z" transform="translate(-71.15 -47.8)"/><path class="cls-50" d="M296.76,140.75a1,1,0,0,0,.49-.13l5-2.91a.82.82,0,0,0,.39-.52.79.79,0,0,0-.15-.62L299.14,132a1,1,0,0,0-1.31-.28l-5.05,2.91a.77.77,0,0,0-.38.51.8.8,0,0,0,.14.63l3.39,4.62a1.05,1.05,0,0,0,.83.41Z" transform="translate(-71.15 -47.8)"/><path class="cls-51" d="M304.47,136.28a1,1,0,0,0,.49-.12l5-2.91a.76.76,0,0,0,.24-1.14l-3.38-4.63a1,1,0,0,0-.83-.4.9.9,0,0,0-.49.13l-5,2.91a.79.79,0,0,0-.39.51.78.78,0,0,0,.15.62l3.38,4.63A1,1,0,0,0,304.47,136.28Z" transform="translate(-71.15 -47.8)"/><path class="cls-52" d="M312.18,131.82a.9.9,0,0,0,.49-.13l5-2.91a.77.77,0,0,0,.39-.51.79.79,0,0,0-.15-.62L314.57,123a1,1,0,0,0-.83-.4.9.9,0,0,0-.49.13l-5,2.91a.77.77,0,0,0-.39.51.79.79,0,0,0,.15.62l3.38,4.63a1,1,0,0,0,.83.4Z" transform="translate(-71.15 -47.8)"/><path class="cls-53" d="M319.89,127.36a1,1,0,0,0,.5-.13l5-2.91a.77.77,0,0,0,.38-.51.8.8,0,0,0-.14-.63l-3.39-4.62a1,1,0,0,0-.83-.4,1,1,0,0,0-.49.12l-5,2.92a.77.77,0,0,0-.39.51.79.79,0,0,0,.15.62l3.38,4.63A1,1,0,0,0,319.89,127.36Z" transform="translate(-71.15 -47.8)"/><rect class="cls-54" x="170.94" y="147.27" width="47.54" height="27.15"/><path class="cls-55" d="M261,201.6v9.74h0a2.31,2.31,0,0,1-1.33,1.78l-14.6,8.43a7.08,7.08,0,0,1-6.43,0l-17-9.91a2.31,2.31,0,0,1-1.33-1.76h0v-9.76l.78.06a3.09,3.09,0,0,1,.56-.4l14.6-8.42a7.08,7.08,0,0,1,6.43,0l17,9.9a3.64,3.64,0,0,1,.41.28Z" transform="translate(-71.15 -47.8)"/><path class="cls-9" d="M261,201.6v1.12a3.58,3.58,0,0,1-1.05.88L245.38,212a7.65,7.65,0,0,1-7,0l-12-7-5-2.92a3.79,3.79,0,0,1-1.06-.89v-1.11l.78.06a3.09,3.09,0,0,1,.56-.4l14.6-8.42a7.08,7.08,0,0,1,6.43,0l17,9.9a3.64,3.64,0,0,1,.41.28Z" transform="translate(-71.15 -47.8)"/><path class="cls-56" d="M261,201.43a2.34,2.34,0,0,1-1.32,1.69l-2.5,1.45-12.11,7a7.06,7.06,0,0,1-6.42,0l-12-7-5-2.93a2.37,2.37,0,0,1-1.32-1.69,2.34,2.34,0,0,1,1.32-1.68l1-.56,13.64-7.88a7.14,7.14,0,0,1,6.43,0l9.78,5.69,3.77,2.19,3.49,2A2.35,2.35,0,0,1,261,201.43Z" transform="translate(-71.15 -47.8)"/><path class="cls-57" d="M261,201.43a2.34,2.34,0,0,1-1.32,1.69l-2.5,1.45H241.09v-9h11.36l3.77,2.19,3.49,2A2.35,2.35,0,0,1,261,201.43Z" transform="translate(-71.15 -47.8)"/><path class="cls-58" d="M241.09,157.82c3.59,0,5.88,2.09,5.88,3.52V201c0,1.44-2.29,3.53-5.88,3.53s-5.88-2.09-5.88-3.53v-39.7C235.21,159.91,237.5,157.82,241.09,157.82Z" transform="translate(-71.15 -47.8)"/><polygon class="cls-59" points="133.77 70.56 172.36 126.01 171.5 125.99 170.85 125.98 170.4 125.97 129.48 70.17 171.71 45.84 172.04 45.84 172.82 45.86 173.68 45.88 133.75 70.54 133.77 70.56"/><polygon class="cls-60" points="133.75 70.54 133.77 70.56 131.46 70.22 130.6 70.2 130.59 70.2 129.94 70.18 129.48 70.17 171.71 45.84 172.04 45.84 172.82 45.86 173.68 45.88 133.75 70.54"/><polygon class="cls-9" points="131.45 70.22 167.64 119.56 172.37 126.01 214.57 101.6 188.31 65.82 173.68 45.88 131.45 70.22"/><polygon class="cls-61" points="214.04 101.49 173.58 46.35 131.98 70.33 172.47 125.54 214.04 101.49"/><g class="cls-16"><path class="cls-62" d="M201.75,118,244,93.66l-.78,0L201.09,118,242,173.78h.64L201.75,118Z" transform="translate(-71.15 -47.8)"/></g><path class="cls-63" d="M238.33,166.13c-1.45-21.95,10.33-40.59,20.68-52.53L244.73,94.15l-41.59,24Z" transform="translate(-71.15 -47.8)"/><path class="cls-64" d="M211.35,124.62a.9.9,0,0,0,.49-.13l5-2.91a.79.79,0,0,0,.39-.51.8.8,0,0,0-.15-.63l-3.39-4.62a1,1,0,0,0-.82-.41,1,1,0,0,0-.49.13l-5,2.91a.76.76,0,0,0-.24,1.14l3.38,4.62a1,1,0,0,0,.83.41Z" transform="translate(-71.15 -47.8)"/><path class="cls-65" d="M219.06,120.16a1,1,0,0,0,.49-.13l5-2.91a.79.79,0,0,0,.39-.51.8.8,0,0,0-.15-.63l-3.38-4.62a1.05,1.05,0,0,0-.83-.41,1,1,0,0,0-.49.13l-5,2.91a.79.79,0,0,0-.39.51.8.8,0,0,0,.15.63l3.38,4.62a1,1,0,0,0,.83.41Z" transform="translate(-71.15 -47.8)"/><path class="cls-66" d="M226.77,115.7a1,1,0,0,0,.49-.13l5.05-2.91a.77.77,0,0,0,.38-.52.79.79,0,0,0-.15-.62l-3.38-4.62a1,1,0,0,0-.83-.41,1,1,0,0,0-.49.13l-5,2.91a.79.79,0,0,0-.39.51.8.8,0,0,0,.15.63l3.38,4.62A1.05,1.05,0,0,0,226.77,115.7Z" transform="translate(-71.15 -47.8)"/><path class="cls-67" d="M234.49,111.24a1.05,1.05,0,0,0,.49-.13l5-2.91a.77.77,0,0,0,.38-.52.78.78,0,0,0-.14-.62l-3.39-4.62A1,1,0,0,0,236,102a.9.9,0,0,0-.49.13l-5,2.91a.82.82,0,0,0-.39.51.81.81,0,0,0,.15.63l3.39,4.62a1,1,0,0,0,.83.41Z" transform="translate(-71.15 -47.8)"/><path class="cls-68" d="M242.2,106.77a1,1,0,0,0,.49-.12l5-2.92a.76.76,0,0,0,.24-1.13L244.58,98a1,1,0,0,0-.83-.4,1,1,0,0,0-.49.13l-5,2.91a.75.75,0,0,0-.38.51.77.77,0,0,0,.14.63l3.39,4.62a1,1,0,0,0,.83.4Z" transform="translate(-71.15 -47.8)"/><path class="cls-69" d="M216.88,132.16a1,1,0,0,0,.49-.12l5-2.91a.77.77,0,0,0,.38-.52.78.78,0,0,0-.14-.62l-3.39-4.62a1,1,0,0,0-.83-.41.9.9,0,0,0-.49.13l-5,2.91a.82.82,0,0,0-.39.51.8.8,0,0,0,.15.63l3.38,4.62a1,1,0,0,0,.83.4Z" transform="translate(-71.15 -47.8)"/><path class="cls-70" d="M224.6,127.7a1,1,0,0,0,.49-.12l5-2.92a.73.73,0,0,0,.38-.51.74.74,0,0,0-.14-.62L227,118.9a1,1,0,0,0-.83-.4,1,1,0,0,0-.49.13l-5,2.91a.8.8,0,0,0-.39.51.78.78,0,0,0,.15.62l3.39,4.63a1,1,0,0,0,.83.4Z" transform="translate(-71.15 -47.8)"/><path class="cls-71" d="M232.31,123.24a1,1,0,0,0,.49-.13l5-2.91a.75.75,0,0,0,.38-.51.74.74,0,0,0-.14-.62l-3.39-4.63a1,1,0,0,0-.83-.4,1,1,0,0,0-.49.12l-5,2.92a.76.76,0,0,0-.24,1.13l3.39,4.63a1,1,0,0,0,.83.4Z" transform="translate(-71.15 -47.8)"/><path class="cls-72" d="M240,118.78a1,1,0,0,0,.49-.13l5-2.91a.82.82,0,0,0,.39-.51.8.8,0,0,0-.15-.63L242.4,110a1,1,0,0,0-.83-.4,1,1,0,0,0-.49.12l-5,2.91a.77.77,0,0,0-.38.52.74.74,0,0,0,.14.62l3.39,4.62a1,1,0,0,0,.83.41Z" transform="translate(-71.15 -47.8)"/><path class="cls-73" d="M247.73,114.32a1,1,0,0,0,.49-.13l5-2.91a.82.82,0,0,0,.39-.51.8.8,0,0,0-.15-.63l-3.39-4.62a1,1,0,0,0-.82-.41,1.06,1.06,0,0,0-.5.13l-5,2.91a.77.77,0,0,0-.38.51.8.8,0,0,0,.14.63l3.39,4.62a1,1,0,0,0,.83.41Z" transform="translate(-71.15 -47.8)"/><path class="cls-74" d="M222.42,139.71a1,1,0,0,0,.49-.13l5-2.91a.75.75,0,0,0,.38-.51.74.74,0,0,0-.14-.62l-3.39-4.63a1,1,0,0,0-.83-.4,1,1,0,0,0-.49.12l-5,2.91a.77.77,0,0,0-.38.52.74.74,0,0,0,.14.62l3.39,4.63a1,1,0,0,0,.83.4Z" transform="translate(-71.15 -47.8)"/><path class="cls-75" d="M230.13,135.25a1,1,0,0,0,.49-.13l5-2.91a.82.82,0,0,0,.39-.51.8.8,0,0,0-.15-.63l-3.39-4.62a1,1,0,0,0-.83-.41,1.05,1.05,0,0,0-.49.13l-5,2.91a.77.77,0,0,0-.38.52.74.74,0,0,0,.14.62l3.39,4.62a1,1,0,0,0,.83.41Z" transform="translate(-71.15 -47.8)"/><path class="cls-76" d="M237.84,130.79a1,1,0,0,0,.49-.13l5-2.91a.79.79,0,0,0,.39-.51.8.8,0,0,0-.15-.63L240.22,122a1,1,0,0,0-1.31-.28l-5,2.91a.77.77,0,0,0-.38.51.84.84,0,0,0,.14.63l3.39,4.62a1,1,0,0,0,.83.41Z" transform="translate(-71.15 -47.8)"/><path class="cls-77" d="M245.55,126.32a1,1,0,0,0,.49-.12l5-2.91a.76.76,0,0,0,.24-1.14l-3.38-4.62a1,1,0,0,0-.83-.41.9.9,0,0,0-.49.13l-5,2.91a.79.79,0,0,0-.39.51.81.81,0,0,0,.15.63l3.38,4.62a1,1,0,0,0,.83.4Z" transform="translate(-71.15 -47.8)"/><path class="cls-78" d="M253.26,121.87a1,1,0,0,0,.49-.13l5.05-2.91a.8.8,0,0,0,.38-.52.79.79,0,0,0-.15-.62l-3.38-4.62a1,1,0,0,0-.83-.41.9.9,0,0,0-.49.13l-5,2.91a.79.79,0,0,0-.39.51.81.81,0,0,0,.15.63l3.38,4.62a1.05,1.05,0,0,0,.83.41Z" transform="translate(-71.15 -47.8)"/><path class="cls-79" d="M228,147.26a1,1,0,0,0,.49-.13l5-2.91a.79.79,0,0,0,.39-.51.8.8,0,0,0-.15-.63l-3.38-4.62a1,1,0,0,0-.83-.41,1,1,0,0,0-.49.13L224,141.09a.81.81,0,0,0-.38.51.84.84,0,0,0,.14.63l3.39,4.62a1.05,1.05,0,0,0,.83.41Z" transform="translate(-71.15 -47.8)"/><path class="cls-80" d="M235.66,142.8a1,1,0,0,0,.49-.13l5-2.91a.79.79,0,0,0,.39-.51.8.8,0,0,0-.15-.63L238.05,134a1,1,0,0,0-.83-.41.9.9,0,0,0-.49.13l-5,2.91a.79.79,0,0,0-.39.51.81.81,0,0,0,.15.63l3.38,4.62a1.05,1.05,0,0,0,.83.41Z" transform="translate(-71.15 -47.8)"/><path class="cls-81" d="M243.37,138.33a1.06,1.06,0,0,0,.5-.12l5-2.92a.73.73,0,0,0,.38-.51.78.78,0,0,0-.14-.62l-3.39-4.63a1,1,0,0,0-.83-.4.9.9,0,0,0-.49.13l-5,2.91a.77.77,0,0,0-.39.51.78.78,0,0,0,.15.62l3.38,4.63a1,1,0,0,0,.83.4Z" transform="translate(-71.15 -47.8)"/><path class="cls-82" d="M251.09,133.87a1,1,0,0,0,.49-.13l5-2.91a.75.75,0,0,0,.38-.51.77.77,0,0,0-.14-.63l-3.39-4.62a1,1,0,0,0-.83-.4,1,1,0,0,0-.49.12l-5,2.91a.77.77,0,0,0-.38.52.74.74,0,0,0,.14.62l3.39,4.62a1,1,0,0,0,.83.41Z" transform="translate(-71.15 -47.8)"/><path class="cls-83" d="M258.8,129.41a1,1,0,0,0,.49-.13l5-2.91a.77.77,0,0,0,.38-.51.76.76,0,0,0-.14-.63l-3.39-4.62a1,1,0,0,0-.83-.4,1,1,0,0,0-.49.12l-5,2.91a.77.77,0,0,0-.38.52.74.74,0,0,0,.14.62L258,129a1,1,0,0,0,.83.41Z" transform="translate(-71.15 -47.8)"/><path class="cls-84" d="M233.48,154.8a1,1,0,0,0,.5-.13l5-2.91a.75.75,0,0,0,.38-.51.77.77,0,0,0-.14-.62L235.87,146a1,1,0,0,0-.83-.4.9.9,0,0,0-.49.13l-5,2.91a.8.8,0,0,0-.39.51.79.79,0,0,0,.15.62l3.39,4.63a1,1,0,0,0,.82.4Z" transform="translate(-71.15 -47.8)"/><path class="cls-85" d="M241.2,150.34a1,1,0,0,0,.49-.13l5-2.91a.75.75,0,0,0,.38-.51.77.77,0,0,0-.14-.63l-3.39-4.62a1,1,0,0,0-.83-.4,1,1,0,0,0-.49.12l-5,2.91a.77.77,0,0,0-.38.52.74.74,0,0,0,.14.62l3.39,4.62A1,1,0,0,0,241.2,150.34Z" transform="translate(-71.15 -47.8)"/><path class="cls-86" d="M248.91,145.88a1.05,1.05,0,0,0,.49-.13l5-2.91a.77.77,0,0,0,.38-.51.76.76,0,0,0-.14-.63l-3.39-4.62a1,1,0,0,0-.83-.41,1.05,1.05,0,0,0-.49.13l-5,2.91a.77.77,0,0,0-.38.52.74.74,0,0,0,.14.62l3.39,4.62a1,1,0,0,0,.83.41Z" transform="translate(-71.15 -47.8)"/><path class="cls-87" d="M256.62,141.42a1.05,1.05,0,0,0,.49-.13l5-2.91a.77.77,0,0,0,.38-.51.76.76,0,0,0-.14-.63L259,132.62a1,1,0,0,0-.83-.41,1.05,1.05,0,0,0-.49.13l-5,2.91a.77.77,0,0,0-.38.51.76.76,0,0,0,.14.63l3.39,4.62a1.05,1.05,0,0,0,.83.41Z" transform="translate(-71.15 -47.8)"/><path class="cls-88" d="M264.33,137a1,1,0,0,0,.49-.12l5-2.92a.77.77,0,0,0,.39-.51.79.79,0,0,0-.15-.62l-3.39-4.62a1,1,0,0,0-.82-.41,1,1,0,0,0-.5.13l-5,2.91a.77.77,0,0,0-.38.51.8.8,0,0,0,.14.63l3.39,4.62a1,1,0,0,0,.83.4Z" transform="translate(-71.15 -47.8)"/><path class="cls-89" d="M239,162.35a1.05,1.05,0,0,0,.49-.13l5-2.91a.77.77,0,0,0,.38-.51.76.76,0,0,0-.14-.63l-3.39-4.62a1,1,0,0,0-.83-.41,1.05,1.05,0,0,0-.49.13l-5,2.91a.77.77,0,0,0-.38.52.74.74,0,0,0,.14.62l3.39,4.62A1,1,0,0,0,239,162.35Z" transform="translate(-71.15 -47.8)"/><path class="cls-90" d="M246.73,157.89a1,1,0,0,0,.49-.13l5-2.91a.82.82,0,0,0,.39-.52.79.79,0,0,0-.15-.62l-3.39-4.62a1,1,0,0,0-.83-.41,1.05,1.05,0,0,0-.49.13l-5,2.91a.77.77,0,0,0-.38.51.8.8,0,0,0,.14.63l3.39,4.62a1.05,1.05,0,0,0,.83.41Z" transform="translate(-71.15 -47.8)"/><path class="cls-91" d="M254.44,153.42a1,1,0,0,0,.49-.12l5-2.92a.74.74,0,0,0,.39-.51.79.79,0,0,0-.15-.62l-3.38-4.63a1,1,0,0,0-.83-.4.9.9,0,0,0-.49.13l-5,2.91a.77.77,0,0,0-.38.51.81.81,0,0,0,.15.63l3.38,4.62a1,1,0,0,0,.83.4Z" transform="translate(-71.15 -47.8)"/><path class="cls-92" d="M262.15,149a1,1,0,0,0,.49-.12l5-2.92a.77.77,0,0,0,.39-.51.79.79,0,0,0-.15-.62l-3.38-4.63a1,1,0,0,0-.83-.4.9.9,0,0,0-.49.13l-5,2.91a.74.74,0,0,0-.39.51.78.78,0,0,0,.15.62l3.38,4.63a1,1,0,0,0,.83.4Z" transform="translate(-71.15 -47.8)"/><path class="cls-93" d="M269.86,144.5a.9.9,0,0,0,.49-.13l5-2.91a.81.81,0,0,0,.38-.51.77.77,0,0,0-.14-.62l-3.39-4.63a1,1,0,0,0-.83-.4,1,1,0,0,0-.49.12l-5,2.92a.74.74,0,0,0-.39.51.79.79,0,0,0,.15.62l3.38,4.62a1,1,0,0,0,.83.41Z" transform="translate(-71.15 -47.8)"/><path class="cls-94" d="M244.55,169.89a1,1,0,0,0,.49-.12l5-2.92a.74.74,0,0,0,.39-.51.79.79,0,0,0-.15-.62l-3.38-4.63a1,1,0,0,0-.83-.4.9.9,0,0,0-.49.13l-5,2.91a.77.77,0,0,0-.39.51.78.78,0,0,0,.15.62l3.38,4.63a1,1,0,0,0,.83.4Z" transform="translate(-71.15 -47.8)"/><path class="cls-95" d="M252.26,165.43a.9.9,0,0,0,.49-.13l5.05-2.91a.75.75,0,0,0,.23-1.13l-3.38-4.63a1,1,0,0,0-.83-.4,1,1,0,0,0-.49.12l-5,2.92a.77.77,0,0,0-.39.51.79.79,0,0,0,.15.62l3.38,4.63a1,1,0,0,0,.83.4Z" transform="translate(-71.15 -47.8)"/><path class="cls-96" d="M260,161a1,1,0,0,0,.5-.13l5-2.91a.77.77,0,0,0,.38-.51.8.8,0,0,0-.14-.63l-3.39-4.62a1,1,0,0,0-.83-.4,1,1,0,0,0-.49.12l-5,2.91a.82.82,0,0,0-.39.52.79.79,0,0,0,.15.62l3.39,4.62A1,1,0,0,0,260,161Z" transform="translate(-71.15 -47.8)"/><path class="cls-97" d="M267.69,156.51a1.05,1.05,0,0,0,.49-.13l5-2.91a.77.77,0,0,0,.38-.51.76.76,0,0,0-.14-.63l-3.39-4.62a1,1,0,0,0-.83-.41,1.05,1.05,0,0,0-.49.13l-5,2.91a.82.82,0,0,0-.39.52.79.79,0,0,0,.15.62l3.39,4.62a1,1,0,0,0,.83.41Z" transform="translate(-71.15 -47.8)"/><path class="cls-98" d="M275.4,152.05a1.05,1.05,0,0,0,.49-.13l5-2.91a.77.77,0,0,0,.38-.52.74.74,0,0,0-.14-.62l-3.39-4.62a1,1,0,0,0-.83-.41,1.05,1.05,0,0,0-.49.13l-5,2.91a.77.77,0,0,0-.38.51.76.76,0,0,0,.14.63l3.39,4.62A1,1,0,0,0,275.4,152.05Z" transform="translate(-71.15 -47.8)"/><path class="cls-99" d="M257.27,229.19c-12.17,0-22.28-3.28-30.17-9.8-16.72-13.83-17.3-37-17.31-38a1.44,1.44,0,0,1,1.41-1.47h0a1.45,1.45,0,0,1,1.44,1.42c0,.22.59,22.88,16.29,35.84,10,8.3,24.09,11,41.75,7.9a1.44,1.44,0,1,1,.49,2.84A81.66,81.66,0,0,1,257.27,229.19Z" transform="translate(-71.15 -47.8)"/><path class="cls-100" d="M200.55,190.08a5.29,5.29,0,0,1-2.65-9.87l9.59-5.54a5.29,5.29,0,0,1,5.29,9.16l-9.59,5.54A5.29,5.29,0,0,1,200.55,190.08Z" transform="translate(-71.15 -47.8)"/><polygon class="cls-101" points="114.81 186.81 114.81 209.64 149.82 189.44 149.82 182.65 114.81 186.81"/><polygon class="cls-102" points="91.53 189.58 91.53 196.37 114.67 209.73 114.81 209.64 114.81 186.81 91.53 189.58"/><polygon class="cls-9" points="91.53 189.58 91.53 190.31 114.67 203.67 114.81 203.59 149.82 183.38 149.82 182.65 114.81 186.81 91.53 189.58"/><polygon class="cls-103" points="149.82 182.65 124.42 197.31 114.67 202.94 105.11 197.42 91.53 189.58 105.73 181.39 114.18 176.51 114.48 176.34 126.68 169.29 138.88 176.34 149.82 182.65"/><polygon class="cls-104" points="149.82 182.65 124.42 197.31 114.18 197.31 114.18 176.34 138.88 176.34 149.82 182.65"/><path class="cls-105" d="M210.14,183.4v47.54l-4,2.33L186,244.85l-.64.37-9.48-64,1.86-1.07,23.15-13.34,0,0h0a2.78,2.78,0,0,1,1.25-.31,3.42,3.42,0,0,1,1.71.51C207.33,169,210.14,176.35,210.14,183.4Z" transform="translate(-71.15 -47.8)"/><path class="cls-106" d="M206.09,233.27,186,244.85l-.64.37-9.48-64,1.86-1.07,23.15-13.34,0,0h0a2.78,2.78,0,0,1,1.25-.31,3.42,3.42,0,0,1,1.71.51c-8.55,6-17.23,16.82-9.08,34C201.07,214.19,204.44,224.84,206.09,233.27Z" transform="translate(-71.15 -47.8)"/><path class="cls-9" d="M175.86,181.26l9.47,64,.64-.37V197.69c0-7.37-2.89-14.8-6.58-16.93a4.36,4.36,0,0,0-1.68-.57Z" transform="translate(-71.15 -47.8)"/><path class="cls-107" d="M185.33,245.22V197.69c0-7.05-2.8-14.39-6.26-16.38s-6.27,2.09-6.27,9.14V238Z" transform="translate(-71.15 -47.8)"/><path class="cls-108" d="M198.22,195.13V230a1.23,1.23,0,0,1-.55.95L192.38,234c-.24.14-.45.09-.52-.12a.54.54,0,0,1,0-.19V198.81a1.23,1.23,0,0,1,.55-.95l5.29-3.05.14-.06C198.05,194.68,198.22,194.84,198.22,195.13Z" transform="translate(-71.15 -47.8)"/><path class="cls-109" d="M197.85,194.93v34.91a1.2,1.2,0,0,1-.55.94L192,233.84a.93.93,0,0,1-.15.07.54.54,0,0,1,0-.19V198.81a1.23,1.23,0,0,1,.55-.95l5.29-3.05.14-.06A.34.34,0,0,1,197.85,194.93Z" transform="translate(-71.15 -47.8)"/><path class="cls-110" d="M196.53,205.26l-3,1.74c-.31.17-.55,0-.55-.32v-1.11a1.18,1.18,0,0,1,.55-.94l3-1.74c.3-.18.55,0,.55.31v1.11A1.23,1.23,0,0,1,196.53,205.26Z" transform="translate(-71.15 -47.8)"/><path class="cls-110" d="M196.53,208.43l-3,1.74c-.31.18-.55,0-.55-.32v-1.1a1.19,1.19,0,0,1,.55-.95l3-1.74c.3-.18.55,0,.55.31v1.11A1.21,1.21,0,0,1,196.53,208.43Z" transform="translate(-71.15 -47.8)"/><path class="cls-110" d="M196.53,211.6l-3,1.74c-.31.18-.55,0-.55-.31v-1.11a1.2,1.2,0,0,1,.55-.95l3-1.74c.3-.17.55,0,.55.32v1.1A1.21,1.21,0,0,1,196.53,211.6Z" transform="translate(-71.15 -47.8)"/><path class="cls-110" d="M196.53,214.77l-3,1.74c-.31.18-.55,0-.55-.31v-1.11a1.2,1.2,0,0,1,.55-1l3-1.74c.3-.17.55,0,.55.32v1.11A1.21,1.21,0,0,1,196.53,214.77Z" transform="translate(-71.15 -47.8)"/><path class="cls-110" d="M196.53,218l-3,1.74c-.31.17-.55,0-.55-.32v-1.11a1.2,1.2,0,0,1,.55-.95l3-1.74c.3-.17.55,0,.55.32V217A1.23,1.23,0,0,1,196.53,218Z" transform="translate(-71.15 -47.8)"/><path class="cls-110" d="M196.53,221.12l-3,1.74c-.31.17-.55,0-.55-.32v-1.11a1.17,1.17,0,0,1,.55-.94l3-1.74c.3-.18.55,0,.55.31v1.11A1.23,1.23,0,0,1,196.53,221.12Z" transform="translate(-71.15 -47.8)"/><path class="cls-110" d="M196.53,224.29l-3,1.74c-.31.18-.55,0-.55-.32v-1.1a1.19,1.19,0,0,1,.55-1l3-1.74c.3-.18.55,0,.55.31v1.11A1.21,1.21,0,0,1,196.53,224.29Z" transform="translate(-71.15 -47.8)"/><path class="cls-110" d="M196.53,227.46l-3,1.74c-.31.18-.55,0-.55-.31v-1.11a1.19,1.19,0,0,1,.55-.95l3-1.74c.3-.17.55,0,.55.32v1.1A1.21,1.21,0,0,1,196.53,227.46Z" transform="translate(-71.15 -47.8)"/><path class="cls-110" d="M196.53,230.63l-3,1.74c-.31.18-.55,0-.55-.31V231a1.2,1.2,0,0,1,.55-.95l3-1.74c.3-.17.55,0,.55.32v1.11A1.21,1.21,0,0,1,196.53,230.63Z" transform="translate(-71.15 -47.8)"/><path class="cls-111" d="M201.28,196.76a1.68,1.68,0,0,0,1.3-1.12c.37-.83.27-1.66-.24-1.89a.63.63,0,0,0-.27-.06,1.66,1.66,0,0,0-1.3,1.13c-.38.82-.27,1.65.24,1.88A.6.6,0,0,0,201.28,196.76Z" transform="translate(-71.15 -47.8)"/><path class="cls-112" d="M201.41,196.27a1.14,1.14,0,0,0,.88-.76c.26-.57.19-1.13-.16-1.29a.41.41,0,0,0-.19,0,1.16,1.16,0,0,0-.89.77c-.25.56-.18,1.13.17,1.28A.41.41,0,0,0,201.41,196.27Z" transform="translate(-71.15 -47.8)"/><polygon class="cls-113" points="136.43 144.91 132.06 147.43 132.06 145.68 136.43 143.17 136.43 144.91"/><path class="cls-114" d="M201.28,202a1.68,1.68,0,0,0,1.3-1.12c.37-.83.27-1.66-.24-1.89a.63.63,0,0,0-.27-.06,1.66,1.66,0,0,0-1.3,1.12c-.38.83-.27,1.66.24,1.89A.6.6,0,0,0,201.28,202Z" transform="translate(-71.15 -47.8)"/><path class="cls-115" d="M201.41,201.46a1.13,1.13,0,0,0,.88-.77c.26-.56.19-1.12-.16-1.28a.41.41,0,0,0-.19,0,1.16,1.16,0,0,0-.89.76c-.25.57-.18,1.13.17,1.29A.41.41,0,0,0,201.41,201.46Z" transform="translate(-71.15 -47.8)"/><polygon class="cls-116" points="136.43 150.1 132.06 152.61 132.06 150.87 136.43 148.36 136.43 150.1"/><path class="cls-117" d="M201.28,207.13a1.68,1.68,0,0,0,1.3-1.12c.37-.82.27-1.65-.24-1.88a.63.63,0,0,0-.27-.06,1.66,1.66,0,0,0-1.3,1.12c-.38.83-.27,1.66.24,1.89A.76.76,0,0,0,201.28,207.13Z" transform="translate(-71.15 -47.8)"/><path class="cls-118" d="M201.41,206.65a1.13,1.13,0,0,0,.88-.77c.26-.56.19-1.13-.16-1.28a.41.41,0,0,0-.19,0,1.15,1.15,0,0,0-.89.76c-.25.57-.18,1.13.17,1.29A.58.58,0,0,0,201.41,206.65Z" transform="translate(-71.15 -47.8)"/><polygon class="cls-119" points="136.43 155.29 132.06 157.8 132.06 156.06 136.43 153.55 136.43 155.29"/><path class="cls-120" d="M201.28,212.32a1.68,1.68,0,0,0,1.3-1.12c.37-.83.27-1.65-.24-1.88a.63.63,0,0,0-.27-.06,1.66,1.66,0,0,0-1.3,1.12c-.38.83-.27,1.65.24,1.88A.6.6,0,0,0,201.28,212.32Z" transform="translate(-71.15 -47.8)"/><path class="cls-121" d="M201.41,211.83a1.12,1.12,0,0,0,.88-.76c.26-.56.19-1.13-.16-1.29a.58.58,0,0,0-.19,0,1.16,1.16,0,0,0-.89.77c-.25.56-.18,1.13.17,1.29A.58.58,0,0,0,201.41,211.83Z" transform="translate(-71.15 -47.8)"/><polygon class="cls-122" points="136.43 160.48 132.06 162.99 132.06 161.25 136.43 158.73 136.43 160.48"/><path class="cls-123" d="M201.28,217.51a1.68,1.68,0,0,0,1.3-1.12c.37-.83.27-1.66-.24-1.89a.81.81,0,0,0-.27-.05,1.66,1.66,0,0,0-1.3,1.12c-.38.82-.27,1.65.24,1.88A.6.6,0,0,0,201.28,217.51Z" transform="translate(-71.15 -47.8)"/><path class="cls-124" d="M201.41,217a1.12,1.12,0,0,0,.88-.76c.26-.57.19-1.13-.16-1.29a.58.58,0,0,0-.19,0,1.16,1.16,0,0,0-.89.77c-.25.56-.18,1.13.17,1.28A.41.41,0,0,0,201.41,217Z" transform="translate(-71.15 -47.8)"/><polygon class="cls-125" points="136.43 165.66 132.06 168.18 132.06 166.43 136.43 163.92 136.43 165.66"/><path class="cls-126" d="M159.8,230.87a4.22,4.22,0,0,1,2.3.69c.78.69,3,1.54,2.34,2.24s-2.18-.47-2-.06,3.47,4.62,3,5-1.08-.06-1.08-.06.7,1.25.29,1.61-.92.11-1.33-.39c0,0-.2,1.14-1.42-.16,0,0-.18.49-1.1-.36s-3.45-3.62-3.42-6.87C157.35,232.56,159.13,230.76,159.8,230.87Z" transform="translate(-71.15 -47.8)"/><path class="cls-127" d="M153.43,200.23c-4.16-2.58-5.8,11.33-3.83,17.22S156.2,231,157,232.18c.5.76,2.64.47,3.53-1.44s-4.82-15-5-15.16S157,202.46,153.43,200.23Z" transform="translate(-71.15 -47.8)"/><path class="cls-128" d="M209.73,282.2s69.24-2.6,73.71-6.32-55.93-11.63-83.87-5.46c0,0-9.21,2.33-9.12,4.39C190.58,277.77,209.73,282.2,209.73,282.2Z" transform="translate(-71.15 -47.8)"/><path class="cls-129" d="M154.86,275.34l0,1.56a1.1,1.1,0,0,0,.5.81c1.34.75,5.09,2.84,5.9,3.45,1,.75,1.14,2.48.69,2.9s-.93,1.06-2.91.88a24.28,24.28,0,0,1-5.6-2,13.81,13.81,0,0,1-3.49-2.06,1.51,1.51,0,0,1-.48-.9,44.75,44.75,0,0,1-.34-6.7c.2-1.2,3.84.57,5.17,1.26A1.07,1.07,0,0,1,154.86,275.34Z" transform="translate(-71.15 -47.8)"/><path class="cls-130" d="M145,238.28c.09,3.49.51,6.75.51,6.75s3,31.19,3.52,31.58a3.44,3.44,0,0,0,2.88.66h0a8.53,8.53,0,0,0,3.32-1.51l.62-48.83s-6.71,1.49-9.37,3.28C145.16,231.11,144.91,234.81,145,238.28Z" transform="translate(-71.15 -47.8)"/><path class="cls-131" d="M145,238.28c.09,3.49.51,6.75.51,6.75s3,31.19,3.52,31.58a3.44,3.44,0,0,0,2.88.66c-.37-1.46-1.1-5.52-1.42-8.09-.53-4.33-.78-23.64-1.14-25a35.9,35.9,0,0,0-2.45-4.94S145.94,238.17,145,238.28Z" transform="translate(-71.15 -47.8)"/><path class="cls-129" d="M142.75,281.89v.64a1.47,1.47,0,0,0,.39.93c1.11,1.08,4.24,4.12,5.07,4.74a2.25,2.25,0,0,1,.95,2,2,2,0,0,1-.61.88,2.93,2.93,0,0,1-2.24.53c-2-.18-5.37-1.36-9.68-5.08a1.26,1.26,0,0,1-.39-.9c.06-1.34.22-4.76.42-5.95s4.2.68,5.61,1.4A1,1,0,0,1,142.75,281.89Z" transform="translate(-71.15 -47.8)"/><path class="cls-130" d="M136.47,281.59a2.87,2.87,0,0,0,1.75,1.16,4.9,4.9,0,0,0,4.76-.86l7.25-49-7.72-1.82-3.54-.84s-1.92,4.84-1,12.67C138.48,246.93,135.74,279.69,136.47,281.59Z" transform="translate(-71.15 -47.8)"/><path class="cls-131" d="M136.47,281.59a2.87,2.87,0,0,0,1.75,1.16c2.94-6.3,2.61-21.7,2.9-26.08.35-5.56,3.87-23.78,3.87-23.78l-2.48-1.84-3.54-.84s-1.92,4.84-1,12.67C138.48,246.93,135.74,279.69,136.47,281.59Z" transform="translate(-71.15 -47.8)"/><path class="cls-127" d="M137.05,207.36v.08a1.41,1.41,0,0,0,0,.2c0,.86.11,1.93.24,3.16h0c.39,3.4,1.11,7.9,1.43,12.07,0,.26,0,.51.05.78.05.85.06,1.67.08,2.47.06,3.51-.05,6.35,1.13,6.92a15.72,15.72,0,0,0,4.24,1.39c.3.05.59.1.88.13a11.57,11.57,0,0,0,5.32-.72,10.74,10.74,0,0,0,1.32-.61h0a11.82,11.82,0,0,0,2.58-1.9,8.64,8.64,0,0,0,1.18-1.3s.16-1.2.34-3.1a104.39,104.39,0,0,0,.5-14.05,37.25,37.25,0,0,0-1.11-8.06c-.87-3-2.3-5.15-4.61-5.26-3.93-.18-11,2.9-13.27,6.08a0,0,0,0,1,0,0A3.36,3.36,0,0,0,137.05,207.36Z" transform="translate(-71.15 -47.8)"/><path class="cls-132" d="M137.05,207.36a34.17,34.17,0,0,0,.25,3.44h0c.39,3.4,1.11,7.9,1.43,12.07,0,.26,0,.51.05.78.05.85.06,1.67.08,2.47.06,3.51-.05,6.35,1.13,6.92a15.72,15.72,0,0,0,4.24,1.39c2.21-6.35-1.4-20.43-1.57-23.2C142.5,208.8,139.85,207.58,137.05,207.36Z" transform="translate(-71.15 -47.8)"/><path class="cls-133" d="M149.35,198.7s-.64,3.87-1.36,4.32a3.34,3.34,0,0,1-4.11-1.74l.53-4.95Z" transform="translate(-71.15 -47.8)"/><path class="cls-126" d="M148.63,185.13c2.3.37,5.15,4,5,8.46-.25,5.62-2.25,8.76-5.73,6.85-2.51-1.38-5.15-3-5-10.3C143,186.52,146.71,184.83,148.63,185.13Z" transform="translate(-71.15 -47.8)"/><path class="cls-130" d="M148.51,182.93c2.32.23,4.56,2.5,5.56,4.54.25.39.44,1.13,2.38.43a6.07,6.07,0,0,1-5.79,5.42c-2.14.13-3.11-.34-3.49-.95a3.74,3.74,0,0,1-.45-.25c-1,1.51-.11,4-.11,4l-.57.37c-.5-.13-1-1.42-1-1.42l-1.39.65c-2.31-2.9-2.43-7.67-2.43-7.67C140.48,185.35,144,182.47,148.51,182.93Z" transform="translate(-71.15 -47.8)"/><path class="cls-126" d="M145,195.05s-.23-3.4-1.9-3,.12,4.71,1.74,3.76Z" transform="translate(-71.15 -47.8)"/><path class="cls-126" d="M142.31,236.1a4.12,4.12,0,0,1,2.18,1c.69.78,2.76,1.92,2,2.53s-2.1-.77-2-.34,2.82,5,2.29,5.41-1.06-.2-1.06-.2.53,1.33.07,1.63-.92,0-1.27-.57c0,0-.34,1.11-1.38-.35,0,0-.24.46-1-.5s-2.93-4.05-2.47-7.26C139.65,237.45,141.66,235.9,142.31,236.1Z" transform="translate(-71.15 -47.8)"/><path class="cls-127" d="M140.12,204.88c-3.78-3.12-7.27,10.44-6.11,16.54s4.71,14.36,5.31,15.6c.4.81,2.56.82,3.7-1s-2.77-15.51-2.93-15.69S143.37,207.57,140.12,204.88Z" transform="translate(-71.15 -47.8)"/><path class="cls-134" d="M93.76,231.94a4.79,4.79,0,0,1-.82.4,7.55,7.55,0,0,1-6-.11,2.11,2.11,0,0,1-1.15-1.48h0V200.43l9.7-1.05v30.08C95.55,230.3,95,231.24,93.76,231.94Z" transform="translate(-71.15 -47.8)"/><path class="cls-135" d="M93.76,231.94a4.79,4.79,0,0,1-.82.4c0-2.84-.19-7.81-2.27-10.75a90.52,90.52,0,0,1-5-8.68V200.43l9.7-1.05v30.08C95.55,230.3,95,231.24,93.76,231.94Z" transform="translate(-71.15 -47.8)"/><path class="cls-136" d="M110,195.15a19.43,19.43,0,0,1-38.69,2.57,19.69,19.69,0,0,1-.17-2.57c0-10.52,8.37-71.54,18.8-73.9a2.72,2.72,0,0,1,.63-.08C101.31,121.17,110,184.42,110,195.15Z" transform="translate(-71.15 -47.8)"/><path class="cls-137" d="M110,195.15a19.43,19.43,0,0,1-38.69,2.57c3,1.91,7.9,3.41,15.19,1.07,11.28-3.6,5.72-58.56,3.44-77.54a2.72,2.72,0,0,1,.63-.08C101.31,121.17,110,184.42,110,195.15Z" transform="translate(-71.15 -47.8)"/><path class="cls-138" d="M146.29,153.89a4.22,4.22,0,0,1-.71.34,6.57,6.57,0,0,1-5.3-.09,1.87,1.87,0,0,1-1-1.29h0V126.26l8.51-.91v26.36C147.86,152.45,147.37,153.27,146.29,153.89Z" transform="translate(-71.15 -47.8)"/><path class="cls-139" d="M146.29,153.89a4.22,4.22,0,0,1-.71.34c0-2.48-.18-6.84-2-9.41a80,80,0,0,1-4.35-7.61v-11l8.51-.91v26.36C147.86,152.45,147.37,153.27,146.29,153.89Z" transform="translate(-71.15 -47.8)"/><path class="cls-140" d="M160.54,121.64a17,17,0,0,1-33.92,2.25,18.37,18.37,0,0,1-.14-2.25c0-9.22,7.33-62.71,16.48-64.79a2.48,2.48,0,0,1,.54-.06C152.91,56.79,160.54,112.23,160.54,121.64Z" transform="translate(-71.15 -47.8)"/><path class="cls-141" d="M160.54,121.64a17,17,0,0,1-33.92,2.25c2.62,1.67,6.92,3,13.32.94,9.89-3.16,5-51.34,3-68a2.48,2.48,0,0,1,.54-.06C152.91,56.79,160.54,112.23,160.54,121.64Z" transform="translate(-71.15 -47.8)"/><path class="cls-142" d="M363,262l-7,7.27-2.51,2.61c.37-2.94-.49-8-3.4-9.29a8.28,8.28,0,0,0-1.32-.46,8,8,0,0,0-2.22-.29c-6.13,0-12.86,5.83-16.8,14.48A28.82,28.82,0,0,0,327,290.93l-1.21.83L249.25,336.4c0-5.71-.47-11.5-4.43-13.28a7.49,7.49,0,0,0-1.33-.46,7.88,7.88,0,0,0-2.22-.3c-5,0-10.3,3.83-14.26,9.87a32.33,32.33,0,0,0-2.54,4.62,33.13,33.13,0,0,0-2.44,7.71,25.8,25.8,0,0,0-.44,4.53,42.88,42.88,0,0,1-6.33.46c-.79,0-1.58,0-2.36-.05a36.1,36.1,0,0,1-15.84-4.24l-23.62-13.45c-1.83-1.06-3.73-2.15-5.67-3.25a26,26,0,0,1-4.3-3h0c-9.76-5.6-10.1-18.66-3-30.55a45.83,45.83,0,0,1,10.67-12.15c7.65-6.16,24.77-15.82,27.06-17.11l.25-.14,1.69-1.57c2.73-2.54,8.37-7.78,14.27-13.12,5.63-5.11,11.48-10.32,15.25-13.35.36-.27.69-.55,1-.79a262.07,262.07,0,0,1,24.92-16.62c8.05-4.79,16.09-9.08,21.92-11.31,5.17-2,21.72-4.27,21.72-4.27l6.46-3.91a15.86,15.86,0,0,1,8.48-1.77c.37,0,.74,0,1.11.07a14.51,14.51,0,0,1,5.49,1.65l39.05,22.21,1.06.61s0,0,0,0c.17.1.33.19.49.3a7.35,7.35,0,0,1,2.49,2.74,6,6,0,0,1,.67,2c0,.2,0,.41,0,.61h0l.47,13.31.05,1.56C365.24,250.69,364,259.53,363,262Z" transform="translate(-71.15 -47.8)"/><path class="cls-143" d="M214.39,250.87c-.19,8.78-1.48,21.32-6.59,30.68-4.53,8.29-32.28,27.11-32.58,34.84-.09,2.34,1.67,9.05,7.22,14-1.83-1.05-12.73-.69-14.66-1.8a27.31,27.31,0,0,1-4.31-3h0c-9.76-5.59-10.09-18.67-3-30.55a45.88,45.88,0,0,1,10.68-12.16c7.65-6.16,24.76-15.82,27.05-17.09l.25-.15,1.7-1.58C202.85,261.45,208.49,256.21,214.39,250.87Z" transform="translate(-71.15 -47.8)"/><path class="cls-144" d="M169.45,303.46l-3.8,5.07.14,13.58-2.32,3.43h0c-7.84-4.48-9.59-13.81-6.31-23.46a39.09,39.09,0,0,1,2.51-5.68,45.59,45.59,0,0,1,11.48-13.56c7.65-6.16,24.77-15.82,27.06-17.11l.25-.14,1.69-1.57Z" transform="translate(-71.15 -47.8)"/><g class="cls-16"><path class="cls-145" d="M361.38,223.72c-5.48,4.55-16.16,9.41-16.71,9.66l-.06,0-25.8-.68c-30.05,3-48.69,27.16-48.87,27.4L252.21,297l-.06.05-44.07,31-3.93,6.28a.25.25,0,0,1-.22.12.2.2,0,0,1-.13,0,.24.24,0,0,1-.09-.35l4-6.42,44.07-31,17.69-36.76c.21-.3,19-24.6,49.3-27.66l25.71.69c.85-.39,11.08-5.12,16.39-9.46C361.06,223.52,361.22,223.61,361.38,223.72Z" transform="translate(-71.15 -47.8)"/></g><g class="cls-16"><path class="cls-145" d="M315.26,198.93c-6.5,3-14.09,7.43-14.2,7.49l-.09.05-19.52,3.1a192.36,192.36,0,0,0-50.31,29.17l-32.79,28.61-37.1,31-3,4.64a.26.26,0,0,1-.22.13.33.33,0,0,1-.15,0,.25.25,0,0,1-.07-.37l3.09-4.74L198,267l32.79-28.61a193.06,193.06,0,0,1,50.51-29.29l19.52-3.1c.71-.42,7.27-4.26,13.32-7.09C314.52,198.87,314.89,198.89,315.26,198.93Z" transform="translate(-71.15 -47.8)"/></g><g class="cls-16"><path class="cls-145" d="M257.56,319.78h0a1.64,1.64,0,0,1-1.33-.59,3.11,3.11,0,0,1-.36-2.62c0-.1,1.26-13,4.25-21.69,3.44-10,9.31-24.77,20.43-36.95,5.23-5.73,15.74-11.87,19-13.34a1,1,0,0,1,1.43.72l5.38,24.57.66,16.74a9.1,9.1,0,0,1-4.14,7.5l-43.43,25.05A4,4,0,0,1,257.56,319.78ZM300,245a.57.57,0,0,0-.25.06c-3.28,1.46-13.7,7.55-18.88,13.22C269.85,270.37,264,285.05,260.57,295c-3,8.63-4.22,21.47-4.23,21.6a2.75,2.75,0,0,0,.26,2.25,1.2,1.2,0,0,0,1,.41h0a3.57,3.57,0,0,0,1.69-.55l43.43-25.05a8.59,8.59,0,0,0,3.9-7.06l-.66-16.7-5.37-24.52A.52.52,0,0,0,300,245Z" transform="translate(-71.15 -47.8)"/></g><path class="cls-146" d="M355.17,232.29c-14.29,6.55-33.91,4.19-51.57,2.52-13.32-1.27-33.41-8.66-48-14.7,8.05-4.78,16.09-9.08,21.93-11.3,5.17-2,21.71-4.27,21.71-4.27l6.47-3.91a16.76,16.76,0,0,1,15.07,0L359.8,222.8l1.07.6a8.28,8.28,0,0,1,1.73,1.31C363.45,225.55,360.46,229.87,355.17,232.29Z" transform="translate(-71.15 -47.8)"/><path class="cls-147" d="M227.17,329.15c0,1-.08,2-.16,3.07a33.46,33.46,0,0,0-2.54,4.62c-.18.42-.36.84-.53,1.27a2.13,2.13,0,0,0-.12.29.78.78,0,0,0,0,.14,32,32,0,0,0-1.74,6,26.67,26.67,0,0,0-.44,4.52,42.78,42.78,0,0,1-6.33.47c-.79,0-1.58,0-2.35-.05a36.28,36.28,0,0,1-15.85-4.25s-11.42-6.5-26.08-14.87c-.46-.25-.92-.52-1.37-.78l-1.83-1a28.76,28.76,0,0,1-3.18-2.11.76.76,0,0,1-.16-.11c-.34-.26-.65-.53-1-.8h0a15.81,15.81,0,0,1-1.57-1c-.2-.14-.39-.3-.58-.45-5.8-4.7-7-12.76-4.42-21.17v0c.09-.26.17-.52.28-.8.24-.74.53-1.48.84-2.23.5-1.19,1.08-2.38,1.72-3.57l.74-1.27c.11,2.83,1.43,6.79,6,11.65l.59.61-.15.21a.28.28,0,0,0-.05.09l0,.12a6.92,6.92,0,0,0-.29,1c-.11.72-.2,1.44-.25,2.13-.18,2.78-.1,5.13-.07,6.77,0,.81.06,1.46.08,1.9a76.07,76.07,0,0,0,9.72,6.9A81.7,81.7,0,0,0,186.73,332h0c.3-.44.79-1.11,1.41-2s1.33-1.81,2.22-2.93c.43-.55.9-1.15,1.45-1.77a9.18,9.18,0,0,1,.94-.92,5,5,0,0,1,.76-.43c.67.26,1.34.5,2,.73,17.08,6,28.21,3.17,28.21,3.17Z" transform="translate(-71.15 -47.8)"/><polygon class="cls-148" points="178.1 288.59 166.52 278.85 165.91 273.59 175.55 271.42 178.82 277.73 178.1 288.59"/><polygon class="cls-149" points="282.46 223.94 271.66 217.82 269.22 213.8 277.56 212.16 282.46 213.67 283.84 220.64 282.49 224.07 282.46 223.94"/><path class="cls-150" d="M222.17,344.41c.55,4.4,2.89,7.84,6.4,9.43a10.18,10.18,0,0,0,4.23.91c5.57,0,11.14-4.37,14.21-11.14,4-8.79,2.05-17.64-4.48-20.6a10.21,10.21,0,0,0-4.23-.91c-5.57,0-11.14,4.37-14.21,11.14A21.06,21.06,0,0,0,222.17,344.41Z" transform="translate(-71.15 -47.8)"/><path class="cls-151" d="M235.35,348.89c2.94,0,6.17-2.75,8-6.86,2.3-5.07,1.6-10.19-1.59-11.64a4.43,4.43,0,0,0-.67-.23A3.9,3.9,0,0,0,240,330c-2.94,0-6.17,2.75-8,6.86s-1.83,8-.06,10.31a4.2,4.2,0,0,0,3.42,1.7Z" transform="translate(-71.15 -47.8)"/><path class="cls-152" d="M232.2,347a4,4,0,0,0,1.52,1.23,4.07,4.07,0,0,0,1.63.34c2.81,0,5.91-2.68,7.72-6.66,2.21-4.9,1.6-9.81-1.42-11.18a3.67,3.67,0,0,0-.61-.21,3.54,3.54,0,0,0-1-.14c-2.82,0-5.91,2.68-7.72,6.66S230.57,344.87,232.2,347Z" transform="translate(-71.15 -47.8)"/><path class="cls-153" d="M231,342.59A7.12,7.12,0,0,0,232.2,347a3.51,3.51,0,0,0,1,.14c2.81,0,5.91-2.67,7.71-6.65s1.73-7.86.1-10a3.54,3.54,0,0,0-1-.14c-2.09,0-4.32,1.47-6.07,3.84a15.3,15.3,0,0,0-1,1.52h0a13,13,0,0,0-.66,1.29,15.32,15.32,0,0,0-1,3.13A11.75,11.75,0,0,0,231,342.59Z" transform="translate(-71.15 -47.8)"/><path class="cls-154" d="M238.82,335.39a1.38,1.38,0,0,0,1.07-.92c.3-.68.22-1.36-.2-1.54a.42.42,0,0,0-.22-.05,1.37,1.37,0,0,0-1.07.91c-.3.68-.22,1.36.2,1.55A.54.54,0,0,0,238.82,335.39Z" transform="translate(-71.15 -47.8)"/><path class="cls-155" d="M236.74,343.4a1.37,1.37,0,0,0,1.06-.92c.31-.68.23-1.36-.19-1.55a.59.59,0,0,0-.23-.05,1.38,1.38,0,0,0-1.06.92c-.31.68-.22,1.36.2,1.55A.54.54,0,0,0,236.74,343.4Z" transform="translate(-71.15 -47.8)"/><path class="cls-156" d="M231,342.59a1.5,1.5,0,0,0,.95-.91c.3-.67.21-1.35-.2-1.54a.54.54,0,0,0-.22,0,.49.49,0,0,0-.24,0A11.75,11.75,0,0,0,231,342.59Z" transform="translate(-71.15 -47.8)"/><path class="cls-157" d="M233,335.72a1.56,1.56,0,0,0,.81-.86,1.72,1.72,0,0,0,.18-.66A15.3,15.3,0,0,0,233,335.72Z" transform="translate(-71.15 -47.8)"/><path class="cls-158" d="M327,284.62c.55,4.41,2.9,7.85,6.4,9.43a10.07,10.07,0,0,0,4.24.91c5.56,0,11.13-4.37,14.2-11.13,4-8.79,2.06-17.65-4.48-20.6a10.18,10.18,0,0,0-4.23-.91c-5.56,0-11.14,4.36-14.2,11.14A21,21,0,0,0,327,284.62Z" transform="translate(-71.15 -47.8)"/><path class="cls-159" d="M340.17,289.11c2.94,0,6.17-2.76,8-6.86,2.29-5.08,1.59-10.2-1.6-11.65a3.75,3.75,0,0,0-.67-.22,3.8,3.8,0,0,0-1.1-.15c-2.94,0-6.16,2.76-8,6.86s-1.82,8-.05,10.32a4.24,4.24,0,0,0,3.41,1.7Z" transform="translate(-71.15 -47.8)"/><path class="cls-160" d="M337,287.19a3.92,3.92,0,0,0,1.51,1.23,4.11,4.11,0,0,0,1.63.35c2.82,0,5.91-2.69,7.72-6.67,2.22-4.9,1.6-9.81-1.42-11.18a3.39,3.39,0,0,0-.61-.21,3.48,3.48,0,0,0-1-.13c-2.81,0-5.91,2.68-7.72,6.65S335.39,285.09,337,287.19Z" transform="translate(-71.15 -47.8)"/><path class="cls-161" d="M335.8,282.8a7,7,0,0,0,1.23,4.39,3.44,3.44,0,0,0,1,.14c2.81,0,5.91-2.67,7.72-6.65s1.73-7.86.09-10a3.48,3.48,0,0,0-1-.13c-2.08,0-4.31,1.46-6.06,3.83a12.41,12.41,0,0,0-1,1.52h0a13.07,13.07,0,0,0-.67,1.29,16.26,16.26,0,0,0-1,3.14A11.62,11.62,0,0,0,335.8,282.8Z" transform="translate(-71.15 -47.8)"/><path class="cls-162" d="M343.65,275.6a1.36,1.36,0,0,0,1.06-.92c.31-.68.22-1.35-.19-1.54a.64.64,0,0,0-.23-.05,1.4,1.4,0,0,0-1.07.92c-.3.68-.21,1.36.2,1.55A.59.59,0,0,0,343.65,275.6Z" transform="translate(-71.15 -47.8)"/><path class="cls-163" d="M341.56,283.61a1.38,1.38,0,0,0,1.07-.92c.31-.68.22-1.35-.19-1.55a.62.62,0,0,0-.23,0,1.38,1.38,0,0,0-1.07.92c-.3.68-.22,1.35.2,1.54A.59.59,0,0,0,341.56,283.61Z" transform="translate(-71.15 -47.8)"/><path class="cls-164" d="M335.8,282.8a1.47,1.47,0,0,0,.94-.9c.31-.67.22-1.36-.19-1.55a.59.59,0,0,0-.23,0,.43.43,0,0,0-.24.06A11.62,11.62,0,0,0,335.8,282.8Z" transform="translate(-71.15 -47.8)"/><path class="cls-165" d="M337.79,275.93a1.53,1.53,0,0,0,.8-.85,1.67,1.67,0,0,0,.19-.67A12.41,12.41,0,0,0,337.79,275.93Z" transform="translate(-71.15 -47.8)"/><path class="cls-166" d="M306.09,267l-26.18,16-13.21,8.07-5.28,3.23c-1,.61-1.45.21-1-.86,1-2.46,2.78-6.92,4.82-11.59a134.34,134.34,0,0,1,6.12-12.66c4.65-8.06,11.82-18.14,29.82-25.94a1.13,1.13,0,0,0,0,.15c.16.59.34,1.27.54,2,.35,1.35.82,2.89,1.19,4.62s.77,3.55,1.16,5.38l.6,2.73c.16.9.28,1.81.43,2.67.27,1.74.53,3.36.75,4.75C306,266.06,306,266.54,306.09,267Z" transform="translate(-71.15 -47.8)"/><path class="cls-167" d="M306.09,267l-26.18,16c-2.58-15.4,11.54-30.93,21.29-39.6.16.59.34,1.27.54,2,.35,1.35.82,2.89,1.19,4.62s.77,3.55,1.16,5.38l.6,2.73c.16.9.28,1.81.43,2.67.27,1.74.53,3.36.75,4.75C306,266.06,306,266.54,306.09,267Z" transform="translate(-71.15 -47.8)"/><g class="cls-16"><path class="cls-145" d="M312.54,288.5c-.72,0-1.21-.56-1.25-1.43l-1-20.18c0-.06-2.38-10.29-3.05-13.42-.22-1-2.78-10.4-2.81-10.49l-.06-.21,1-.4a50.13,50.13,0,0,1,17.65-3.74c7.83,0,11.72,2.81,12.68,4.3a8.81,8.81,0,0,1,1,4.53c0,.09,0,8.63-1.5,9.58,0,0-5.51,5.25-8.18,10.94a61.73,61.73,0,0,0-4.25,13,5.11,5.11,0,0,1-2.15,3l-7.26,4.21A1.72,1.72,0,0,1,312.54,288.5ZM305,243.06c.39,1.44,2.55,9.37,2.76,10.31.67,3.12,3,13.35,3.05,13.45l1,20.23c0,.6.31,1,.77,1a1.32,1.32,0,0,0,.64-.19l7.26-4.21a4.67,4.67,0,0,0,1.92-2.73,62.23,62.23,0,0,1,4.29-13.11c2.7-5.77,8.27-11.06,8.32-11.11,1-.61,1.33-6.38,1.31-9.19a8.27,8.27,0,0,0-.9-4.28c-.91-1.41-4.65-4.08-12.27-4.08a49.68,49.68,0,0,0-17.48,3.71Z" transform="translate(-71.15 -47.8)"/></g><path class="cls-168" d="M336.8,246.12a4.26,4.26,0,0,1-1.88,3.21l-25,15.3c-.24-1.35-.51-2.89-.79-4.55-.17-.88-.31-1.8-.5-2.71s-.43-1.86-.65-2.79c-.43-1.86-.87-3.73-1.27-5.48s-.93-3.35-1.31-4.75c-.27-1-.51-1.85-.73-2.54,19.9-7.62,29.74-2.34,31.31.09A8.72,8.72,0,0,1,336.8,246.12Z" transform="translate(-71.15 -47.8)"/><path class="cls-169" d="M271.6,261.88l-16.89,34a1.58,1.58,0,0,1-1.51.82A100.18,100.18,0,0,1,214.52,282c-1.86-1.18-3.5-2.29-5-3.36-7.61-5.53-10.25-9.51-11.1-11.91a1.9,1.9,0,0,1-.15-1.09,11.53,11.53,0,0,0,.89-.79c3.84-3.58,21.08-19.62,29.63-26.65a1.4,1.4,0,0,1,1.65,0,141.06,141.06,0,0,0,15.09,10.05,254.75,254.75,0,0,0,23.56,11.48l2,.83A1,1,0,0,1,271.6,261.88Z" transform="translate(-71.15 -47.8)"/><path class="cls-170" d="M269.13,259.7c-17.4.92-40.08,5.19-59.57,18.94-8.8-6.4-10.95-10.71-11.38-12.92l.25-.15s22-20.58,31.21-28a145.75,145.75,0,0,0,15.93,10.68A254.75,254.75,0,0,0,269.13,259.7Z" transform="translate(-71.15 -47.8)"/><path class="cls-171" d="M320.92,232.51l21.53.57c1.17,0,2-.88,1.47-1.94-1.39-3-5.75-9.23-19.49-17a63.11,63.11,0,0,0-23.51-7.9,17.18,17.18,0,0,0-4.17.22l-15,2.82c-1.14.22-1.16.63,0,1A79.82,79.82,0,0,1,300,218.14,132,132,0,0,1,317.27,231,6.63,6.63,0,0,0,320.92,232.51Z" transform="translate(-71.15 -47.8)"/><path class="cls-172" d="M365.1,246.94c-.2,6.13-1.23,12.95-2.13,15.06l-9.49,9.88c.37-2.94-.49-8-3.4-9.29a8.28,8.28,0,0,0-1.32-.46,8,8,0,0,0-2.22-.29c-6.13,0-12.86,5.83-16.8,14.48A28.82,28.82,0,0,0,327,290.93l-1.21.83L249.25,336.4c0-5.71-.47-11.5-4.43-13.28a7.49,7.49,0,0,0-1.33-.46,7.88,7.88,0,0,0-2.22-.3c-6.13,0-12.85,5.84-16.8,14.49a33.13,33.13,0,0,0-2.44,7.71c1.06-18.24,8.16-25.63,8.16-25.63s107.3-66.4,122.14-78.59a94.18,94.18,0,0,0,12.21-11.84c0,.2,0,.41,0,.61h0l.3,8.75.22,6.12C365.15,244.93,365.14,245.93,365.1,246.94Z" transform="translate(-71.15 -47.8)"/><path class="cls-173" d="M356,269.26l-2.38,2.48a2.32,2.32,0,0,0-.07-.38c.21-3-.72-7.52-3.45-8.77a7.49,7.49,0,0,0-1.33-.46,7.88,7.88,0,0,0-2.22-.3,11,11,0,0,0-3.35.55c-5.11,1.64-10.22,6.84-13.45,13.93a32.3,32.3,0,0,0-2.64,8.93,23.3,23.3,0,0,0-.13,5.69l-1.21.84-76.51,44.62c.05-5.69-.47-11.48-4.43-13.27a8.33,8.33,0,0,0-1.32-.47,8,8,0,0,0-2.23-.29c-6.12,0-12.85,5.83-16.8,14.48a33.54,33.54,0,0,0-2.44,7.72,26.67,26.67,0,0,0-.44,4.52,42.78,42.78,0,0,1-6.33.47c-1.43-6,.46-14.27,5.57-22,6.23-9.36,15.2-14.91,22.36-13.75a9.25,9.25,0,0,1,2.53.76,9.88,9.88,0,0,1,1.47.78c3.63,2.42,5.3,6.92,5,12.3l71.69-42.55a40.07,40.07,0,0,1,4.3-15.86c5.43-10.2,13-14.86,19.6-13.79a9.45,9.45,0,0,1,3.7,1.5C354.86,259.31,356.34,263.84,356,269.26Z" transform="translate(-71.15 -47.8)"/><path class="cls-174" d="M265.77,291.05,262,293.36c-.71.43-1,.15-.73-.62.7-1.76,2-4.95,3.44-8.28Z" transform="translate(-71.15 -47.8)"/><path class="cls-175" d="M265.73,292.88a10.49,10.49,0,0,1-3.54-.81c-.15-.17-.09-.47-.05-.66h0l.05-.16A15.7,15.7,0,0,1,265,289.4c.64-.13,1.74.54,2.12.77l0,0C267.54,290.41,266.18,292.78,265.73,292.88Z" transform="translate(-71.15 -47.8)"/><path class="cls-176" d="M267.16,290.17a5.15,5.15,0,0,1-1.43,2.16,11,11,0,0,1-3.54-.81.27.27,0,0,1-.05-.11h0l.05-.16A15.7,15.7,0,0,1,265,289.4C265.68,289.27,266.78,289.94,267.16,290.17Z" transform="translate(-71.15 -47.8)"/><path class="cls-177" d="M277.94,291.16c.37,3.84-7.43,3.1-9.43,2.8-1.8-.28-3.88-1.35-3.39-2.47a0,0,0,0,1,0,0s.57-4.15,3.33-4.51c1.12-.15,9.05,1.46,9.47,4.12C277.93,291.1,277.94,291.13,277.94,291.16Z" transform="translate(-71.15 -47.8)"/><path class="cls-178" d="M277.93,291.07c-.47,3.16-7.54,2.49-9.42,2.2-1.43-.21-3-.93-3.39-1.78a0,0,0,0,1,0,0s.57-4.15,3.33-4.51C269.58,286.8,277.51,288.41,277.93,291.07Z" transform="translate(-71.15 -47.8)"/><path class="cls-179" d="M302.57,277.54,295,282c-.5.3-.91.06-.91-.52v-1.26a2,2,0,0,1,.91-1.58l7.57-4.43c.5-.3.91-.06.91.52V276A2,2,0,0,1,302.57,277.54Z" transform="translate(-71.15 -47.8)"/><path class="cls-180" d="M330.86,260.4l-7.58,4.44c-.5.29-.9.06-.9-.53v-1.25a2,2,0,0,1,.9-1.59l7.58-4.43c.5-.29.9-.06.9.52v1.26A2,2,0,0,1,330.86,260.4Z" transform="translate(-71.15 -47.8)"/><path class="cls-181" d="M250,296.27c-.87.47-4.68,2.49-10.06,5.33-6.13,3.29-14.45,7.44-22.64,11.71l-12.06,6.23c-3.52,1.82-6.82,3.59-9.7,5.12l-.79.41-.57.3-.29.15-.13.07,0,0a6.78,6.78,0,0,0-.71.71c-.52.54-1,1.11-1.42,1.66-.86,1.1-1.7,2-2.33,2.79s-1.05,1.21-1.4,1.61c-.37-.15-.74-.29-1.1-.45.3-.44.79-1.11,1.41-2s1.33-1.81,2.22-2.93c.43-.55.9-1.15,1.45-1.77a9.18,9.18,0,0,1,.94-.92,5,5,0,0,1,.76-.43c.13-.05.27-.13.41-.2,3.11-1.55,6.72-3.4,10.63-5.31l12.25-6Z" transform="translate(-71.15 -47.8)"/><path class="cls-182" d="M195,270.54l-5.39,6.91c-3.46,4.44-8.07,10.38-12.65,16.34-1.14,1.49-2.29,3-3.4,4.46s-2.22,2.93-3.26,4.33-2.06,2.75-2.93,4.12l-.33.49,0,0-.15.21a.28.28,0,0,0-.05.09l0,.12a6.92,6.92,0,0,0-.29,1c-.11.72-.2,1.44-.25,2.13-.18,2.78-.1,5.13-.07,6.77,0,.81.06,1.46.08,1.9-.37-.32-.72-.62-1.06-.94,0-.29,0-.59,0-.94,0-1.65,0-4,.19-6.86a20.62,20.62,0,0,1,.3-2.22,7.22,7.22,0,0,1,.35-1.19l.05-.16c0-.13.07-.11.1-.16l.16-.25.11-.15.24-.35c.9-1.33,2-2.69,3-4.1s2.2-2.85,3.35-4.3l3.48-4.41C184.76,283.12,193.08,272.88,195,270.54Z" transform="translate(-71.15 -47.8)"/><polygon class="cls-183" points="131.39 236.03 130.04 235.26 134.65 232.6 136 233.38 131.39 236.03"/><polygon class="cls-184" points="133.38 237.19 132.03 236.41 136.64 233.75 137.99 234.53 133.38 237.19"/><polygon class="cls-185" points="135.37 238.34 134.03 237.56 138.63 234.9 139.98 235.67 135.37 238.34"/><polygon class="cls-186" points="137.36 239.48 136.02 238.71 140.62 236.05 141.97 236.82 137.36 239.48"/><polygon class="cls-187" points="139.35 240.63 138.01 239.86 142.62 237.2 143.96 237.97 139.35 240.63"/><polygon class="cls-188" points="141.34 241.78 140 241.01 144.61 238.35 145.95 239.12 141.34 241.78"/><polygon class="cls-189" points="143.33 242.93 141.99 242.16 146.6 239.5 147.94 240.27 143.33 242.93"/><polygon class="cls-190" points="145.33 244.08 143.98 243.31 148.59 240.65 149.93 241.42 145.33 244.08"/><polygon class="cls-191" points="147.32 245.23 145.97 244.46 150.58 241.8 151.92 242.57 147.32 245.23"/><polygon class="cls-192" points="149.31 246.38 147.96 245.6 152.57 242.94 153.91 243.72 149.31 246.38"/><path class="cls-193" d="M164,308.51v4.9a1.41,1.41,0,0,1-.21.84c-.24.33-.68.25-1.16-.31a22.61,22.61,0,0,1-5.45-10.8,7.13,7.13,0,0,1-.07-1.09,39.39,39.39,0,0,1,2.5-5.67c.06.3.11.58.17.84a23,23,0,0,0,3,7.48A12.21,12.21,0,0,1,164,308.51Z" transform="translate(-71.15 -47.8)"/><path class="cls-194" d="M215,331.51v1.94a2.29,2.29,0,0,1-.67,1.63h0a2.31,2.31,0,0,1-1.69.68c-11.24-.34-17-1.92-19.8-3a1.83,1.83,0,0,1-.65-2.95c1-1.15,2.29-2.44,3.27-2.59h.09l.35,0c4.25-.49,4.29,1.7,16.74,1.95A2.41,2.41,0,0,1,215,331.51Z" transform="translate(-71.15 -47.8)"/><path class="cls-195" d="M164,308.51v4.9a1.41,1.41,0,0,1-.21.84,1.52,1.52,0,0,1-.51-.42,22.52,22.52,0,0,1-5.44-10.8,7,7,0,0,1-.08-1.08,38.39,38.39,0,0,1,2-4.73,23,23,0,0,0,3,7.48A12.21,12.21,0,0,1,164,308.51Z" transform="translate(-71.15 -47.8)"/><path class="cls-196" d="M215,331.51v1.94a2.29,2.29,0,0,1-.67,1.63h0a1.86,1.86,0,0,1-.51.25h-.13c-11.24-.34-17.06-1.91-19.8-3a1.82,1.82,0,0,1-.65-3,11.77,11.77,0,0,1,2.31-2.18h0l.35,0c4.25-.49,4.29,1.7,16.74,1.95A2.41,2.41,0,0,1,215,331.51Z" transform="translate(-71.15 -47.8)"/><path class="cls-197" d="M223.94,338.11a2.13,2.13,0,0,0-.12.29l0,.14c-.07.25-.16.54-.23.87-.91,3.88-1.71,12.61-1.71,12.61-17.29,6.29-30.84,1.56-45.88-6s-21.62-15.61-23.73-18.94c-1.86-2.92-1.81-11.48-1.65-15.87,0-.58,0-1.09.07-1.51a3,3,0,0,1,.13-.75,3.22,3.22,0,0,1,.22-.61c1.3-3.26,6-7.65,6.86-8.43l.13-.11a4.07,4.07,0,0,0-.24.39c-.06.09-.11.2-.17.31a7.61,7.61,0,0,0-.58,1.69c0,.2-.08.41-.13.64v0l-.06.55a9.8,9.8,0,0,0,0,1.71c0,.14,0,.28,0,.42a.13.13,0,0,0,0,.06c0,.16,0,.33.08.49s.06.34.09.51a1.78,1.78,0,0,0,.1.38c0,.13.06.26.1.39a13.58,13.58,0,0,0,.84,2.24c.06.14.13.28.2.42s.17.35.28.53c.24.45.51.92.83,1.41.1.17.21.33.32.49a28.19,28.19,0,0,0,2.65,3.31c.32.36.66.71,1,1.08.55.56,1.14,1.12,1.78,1.7.34.32.69.62,1.06.94a76.07,76.07,0,0,0,9.72,6.9l1.3.78,1,.6a81.22,81.22,0,0,0,8.44,4.18h0c.36.16.73.3,1.1.45l1.62.63c.62.23,1.23.46,1.83.66l1.33.44c.45.15.91.28,1.35.41.83.25,1.64.47,2.44.67.59.15,1.16.29,1.73.4.33.08.67.15,1,.21.65.14,1.3.26,1.93.36l.38.06c.37.07.74.12,1.1.17.86.12,1.69.21,2.49.29l1.19.09h.17c.65,0,1.28.08,1.91.09a62.55,62.55,0,0,0,11.4-.5Z" transform="translate(-71.15 -47.8)"/><path class="cls-182" d="M223.94,338.11a2.13,2.13,0,0,0-.12.29l0,.14c-.07.25-.16.54-.23.87a40.06,40.06,0,0,1-14.59,2.5h0c-11.69,0-26-4.07-38.33-10.89-.46-.25-.93-.51-1.38-.78-1.77-1-3.47-2.08-5.06-3.18a1.36,1.36,0,0,1-.19-.14c-.94-.64-1.82-1.29-2.56-1.85l-.39-.3-.3-.23c-5.62-4.44-9.11-9.06-10.16-13.32,0-.58,0-1.09.07-1.51a3,3,0,0,1,.13-.75,3.22,3.22,0,0,1,.22-.61c1.3-3.26,6-7.65,6.86-8.43l.13-.11a4.07,4.07,0,0,0-.24.39c-.06.09-.11.2-.17.31a7.61,7.61,0,0,0-.58,1.69c0,.2-.08.41-.13.64v0l-.06.55a9.8,9.8,0,0,0,0,1.71c0,.14,0,.28,0,.42a.13.13,0,0,0,0,.06c0,.16,0,.33.08.49s.06.34.09.51a1.78,1.78,0,0,0,.1.38c0,.13.06.26.1.39a13.58,13.58,0,0,0,.84,2.24c.06.14.13.28.2.42s.17.35.28.53c.24.45.51.92.83,1.41.1.17.21.33.32.49a28.19,28.19,0,0,0,2.65,3.31c.32.36.66.71,1,1.08.55.56,1.14,1.12,1.78,1.7.34.32.69.62,1.06.94a76.07,76.07,0,0,0,9.72,6.9l1.3.78,1,.6a81.22,81.22,0,0,0,8.44,4.18h0c.36.16.73.3,1.1.45l1.62.63c.62.23,1.23.46,1.83.66l1.33.44c.45.15.91.28,1.35.41.83.25,1.64.47,2.44.67.59.15,1.16.29,1.73.4.33.08.67.15,1,.21.65.14,1.3.26,1.93.36l.38.06c.37.07.74.12,1.1.17.86.12,1.69.21,2.49.29l1.19.09h.17c.65,0,1.28.08,1.91.09,7.6.19,10.61.57,10.61.57Z" transform="translate(-71.15 -47.8)"/><path class="cls-198" d="M223.94,338.11a2.13,2.13,0,0,0-.12.29l0,.14h0c-15.32,6.25-37.16.49-52.79-8.16-.46-.25-.92-.52-1.37-.78q-2.66-1.52-5-3.15a.76.76,0,0,1-.16-.11c-.89-.6-1.75-1.23-2.57-1.86-.2-.14-.39-.3-.58-.45l-.17-.14c-5.9-4.66-10.1-10.12-10.14-15.25a1.46,1.46,0,0,1,0-.29c1.3-3.26,6-7.65,6.86-8.43l.13-.11a4.07,4.07,0,0,0-.24.39c-.06.09-.11.2-.17.31a7.61,7.61,0,0,0-.58,1.69,5.56,5.56,0,0,0-.13.64v0a4.87,4.87,0,0,0-.06.55,9.8,9.8,0,0,0,0,1.71c0,.14,0,.28,0,.42a.13.13,0,0,0,0,.06,4.17,4.17,0,0,0,.08.49c0,.16.06.33.09.51a1.78,1.78,0,0,0,.1.38c0,.14.06.26.1.39a13.58,13.58,0,0,0,.84,2.24c.06.14.13.28.2.42s.17.35.28.53c.24.45.51.92.83,1.41l.32.49a28.19,28.19,0,0,0,2.65,3.31c.32.36.67.71,1,1.08.55.56,1.14,1.12,1.78,1.7.34.32.69.62,1.06.94a76.07,76.07,0,0,0,9.72,6.9l1.3.78,1,.6a81.22,81.22,0,0,0,8.44,4.18h0c.36.16.73.3,1.1.45l1.62.63c.62.23,1.23.46,1.83.66l1.33.44c.45.15.91.28,1.35.41.83.25,1.64.47,2.44.67.59.15,1.16.27,1.73.4.33.08.67.15,1,.21.66.14,1.3.26,1.93.36l.38.06c.37.07.74.12,1.1.17.86.12,1.69.21,2.49.29l1.19.09h.17c.65,0,1.29.08,1.91.09,7.6.19,12-1.49,12-1.49Z" transform="translate(-71.15 -47.8)"/><path class="cls-199" d="M365.07,242.42l-1.2,1.3s-4.28-.65-4.28-.65,2.34-12.45,5-14h0Z" transform="translate(-71.15 -47.8)"/><path class="cls-200" d="M365.1,246.94l-2.84,1.83c-1.42.93-2.64.3-2.72-1.39l-.15-2.8a5.83,5.83,0,0,1,2.42-4.71l3.09-2,.22,6.12C365.15,244.93,365.14,245.93,365.1,246.94Z" transform="translate(-71.15 -47.8)"/></g></g></svg>