<?xml version="1.0" standalone="no"?>
<svg viewBox="0 0 200 200" xmlns="http://www.w3.org/2000/svg">
  <path fill="#F2F4F8" d="M26.6,-50.2C32.4,-37.7,33.6,-26.8,38.8,-17.2C44,-7.6,53.2,0.7,59.1,13.5C65,26.2,67.5,43.4,58.5,46.8C49.5,50.1,29,39.5,15.1,36.8C1.3,34.1,-5.9,39.4,-17.2,43.1C-28.4,46.8,-43.8,49,-57.9,43.9C-72.1,38.8,-85.1,26.5,-84,13.9C-83,1.4,-67.9,-11.4,-59.1,-25.6C-50.4,-39.8,-48.1,-55.5,-39.3,-66.6C-30.5,-77.7,-15.2,-84.2,-2.4,-80.5C10.4,-76.7,20.8,-62.7,26.6,-50.2Z" transform="translate(100 100)" />
</svg>
