<?xml version="1.0" standalone="no"?>
<svg viewBox="0 0 200 200" xmlns="http://www.w3.org/2000/svg">
  <path fill="#F2F4F8" d="M26.9,-42.4C37.2,-40.6,49.5,-38.1,53.6,-30.9C57.7,-23.8,53.7,-11.9,51.2,-1.5C48.7,9,47.6,17.9,47.5,32C47.3,46,48,65.2,40.2,67.1C32.5,68.9,16.2,53.5,3,48.4C-10.3,43.2,-20.6,48.3,-27.2,45.8C-33.8,43.2,-36.7,33.1,-42.9,24.2C-49.2,15.3,-58.7,7.6,-60.4,-1C-62.1,-9.6,-56,-19.2,-52,-32C-48,-44.7,-46,-60.5,-37.7,-63.5C-29.4,-66.4,-14.7,-56.5,-3.2,-50.9C8.3,-45.4,16.6,-44.3,26.9,-42.4Z" transform="translate(100 100)" />
</svg>
