<?xml version="1.0" encoding="UTF-8"?>
<svg xmlns="http://www.w3.org/2000/svg" xmlns:xlink="http://www.w3.org/1999/xlink" width="60pt" height="60pt" viewBox="0 0 60 60" version="1.1">
<g id="surface21129365">
<path style="fill-rule:nonzero;fill:rgb(0%,0%,0%);fill-opacity:1;stroke-width:10;stroke-linecap:butt;stroke-linejoin:round;stroke:rgb(12.54902%,47.058824%,60.000002%);stroke-opacity:1;stroke-miterlimit:10;" d="M 154.799053 40.130016 C 156.872741 40.106316 158.792384 41.184634 159.835153 42.973931 C 160.877922 44.763228 160.877922 46.967262 159.835153 48.756559 C 158.792384 50.545856 156.872741 51.624174 154.799053 51.600474 L 17.200948 51.600474 C 15.12726 51.624174 13.207617 50.545856 12.164848 48.756559 C 11.122079 46.967262 11.122079 44.763228 12.164848 42.973931 C 13.207617 41.184634 15.12726 40.106316 17.200948 40.130016 Z M 154.799053 80.264771 C 156.872741 80.241072 158.792384 81.31939 159.835153 83.108687 C 160.877922 84.897983 160.877922 87.102018 159.835153 88.891315 C 158.792384 90.680611 156.872741 91.758929 154.799053 91.73523 L 17.200948 91.73523 C 15.12726 91.758929 13.207617 90.680611 12.164848 88.891315 C 11.122079 87.102018 11.122079 84.897983 12.164848 83.108687 C 13.207617 81.31939 15.12726 80.241072 17.200948 80.264771 Z M 154.799053 120.399527 C 156.872741 120.375828 158.792384 121.454146 159.835153 123.243442 C 160.877922 125.032739 160.877922 127.236773 159.835153 129.02607 C 158.792384 130.815367 156.872741 131.893685 154.799053 131.869986 L 17.200948 131.869986 C 15.12726 131.893685 13.207617 130.815367 12.164848 129.02607 C 11.122079 127.236773 11.122079 125.032739 12.164848 123.243442 C 13.207617 121.454146 15.12726 120.375828 17.200948 120.399527 Z M 154.799053 120.399527 " transform="matrix(0.329651,0,0,0.329651,1.65,1.65)"/>
<path style=" stroke:none;fill-rule:nonzero;fill:rgb(12.54902%,47.058824%,60.000002%);fill-opacity:1;" d="M 7.320312 14.878906 C 6.636719 14.871094 6.003906 15.226562 5.660156 15.816406 C 5.316406 16.40625 5.316406 17.132812 5.660156 17.722656 C 6.003906 18.3125 6.636719 18.667969 7.320312 18.660156 L 52.679688 18.660156 C 53.363281 18.667969 53.996094 18.3125 54.339844 17.722656 C 54.683594 17.132812 54.683594 16.40625 54.339844 15.816406 C 53.996094 15.226562 53.363281 14.871094 52.679688 14.878906 Z M 7.320312 28.109375 C 6.636719 28.101562 6.003906 28.457031 5.660156 29.046875 C 5.316406 29.636719 5.316406 30.363281 5.660156 30.953125 C 6.003906 31.542969 6.636719 31.898438 7.320312 31.890625 L 52.679688 31.890625 C 53.363281 31.898438 53.996094 31.542969 54.339844 30.953125 C 54.683594 30.363281 54.683594 29.636719 54.339844 29.046875 C 53.996094 28.457031 53.363281 28.101562 52.679688 28.109375 Z M 7.320312 41.339844 C 6.636719 41.332031 6.003906 41.6875 5.660156 42.277344 C 5.316406 42.867188 5.316406 43.59375 5.660156 44.183594 C 6.003906 44.773438 6.636719 45.128906 7.320312 45.121094 L 52.679688 45.121094 C 53.363281 45.128906 53.996094 44.773438 54.339844 44.183594 C 54.683594 43.59375 54.683594 42.867188 54.339844 42.277344 C 53.996094 41.6875 53.363281 41.332031 52.679688 41.339844 Z M 7.320312 41.339844 "/>
</g>
</svg>
